<?xml version="1.0" encoding="UTF-8" standalone="no"?>
<svg xmlns="http://www.w3.org/2000/svg" xmlns:xlink="http://www.w3.org/1999/xlink" width="48" height="48">
  <defs>
    <linearGradient id="e">
      <stop offset="0" stop-color="#8a8a8a"/>
      <stop offset="1" stop-color="#484848"/>
    </linearGradient>
    <linearGradient id="g">
      <stop offset="0" stop-color="#fff"/>
      <stop offset=".5" stop-color="#fff" stop-opacity=".21904762"/>
      <stop offset="1" stop-color="#fff"/>
    </linearGradient>
    <linearGradient id="i">
      <stop offset="0"/>
      <stop offset="1" stop-opacity="0"/>
    </linearGradient>
    <linearGradient id="k">
      <stop offset="0" stop-color="#fff"/>
      <stop offset="1" stop-color="#fff" stop-opacity=".24761905"/>
    </linearGradient>
    <linearGradient id="j">
      <stop offset="0" stop-color="#729fcf" stop-opacity=".20784314"/>
      <stop offset="1" stop-color="#729fcf" stop-opacity=".6761905"/>
    </linearGradient>
    <linearGradient id="f">
      <stop offset="0" stop-color="#7d7d7d"/>
      <stop offset=".5" stop-color="#b1b1b1"/>
      <stop offset="1" stop-color="#686868"/>
    </linearGradient>
    <linearGradient xlink:href="#a" id="n" x1="22.125" x2="22.125" y1="34.962811" y2="6.25" gradientTransform="translate(0 4)" gradientUnits="userSpaceOnUse"/>
    <linearGradient xlink:href="#b" id="m" x1="29.033241" x2="14.33379" y1="36.44521" y2="9.4596548" gradientTransform="translate(0 1)" gradientUnits="userSpaceOnUse"/>
    <linearGradient xlink:href="#c" id="o" x1="19.891792" x2="21.506844" y1="16.114628" y2="85.696808" gradientTransform="translate(0 1)" gradientUnits="userSpaceOnUse"/>
    <linearGradient xlink:href="#d" id="p" x1="24.911612" x2="24.911612" y1="22.13604" y2="6.4029131" gradientTransform="translate(-1 1)" gradientUnits="userSpaceOnUse"/>
    <linearGradient id="h">
      <stop offset="0"/>
      <stop offset="1" stop-opacity="0"/>
    </linearGradient>
    <linearGradient id="c">
      <stop offset="0" stop-color="#fff"/>
      <stop offset="1" stop-color="#b3b3b3" stop-opacity="0"/>
    </linearGradient>
    <linearGradient id="b">
      <stop offset="0" stop-color="#497fc6"/>
      <stop offset="1" stop-color="#90b3d9"/>
    </linearGradient>
    <linearGradient id="d">
      <stop offset="0" stop-color="#fff"/>
      <stop offset="1" stop-color="#fff" stop-opacity="0"/>
    </linearGradient>
    <linearGradient id="a">
      <stop offset="0" stop-color="#2a5387"/>
      <stop offset="1" stop-color="#3465a4"/>
    </linearGradient>
    <linearGradient xlink:href="#e" id="r" x1="27.366341" x2="31.335964" y1="26.580296" y2="30.557772" gradientTransform="matrix(.68281 0 0 .68219 15.014297 16.940701)" gradientUnits="userSpaceOnUse"/>
    <linearGradient xlink:href="#f" id="s" x1="30.65625" x2="33.21875" y1="34" y2="31.0625" gradientTransform="matrix(.91127 0 0 .8809 10.252486 11.851137)" gradientUnits="userSpaceOnUse"/>
    <linearGradient xlink:href="#g" id="t" x1="18.292673" x2="17.500893" y1="13.602121" y2="25.743469" gradientUnits="userSpaceOnUse"/>
    <radialGradient xlink:href="#h" id="l" cx="24.837126" cy="36.421127" r="15.644737" fx="24.837126" fy="36.421127" gradientTransform="matrix(1 0 0 .53672 0 16.87306)" gradientUnits="userSpaceOnUse"/>
    <radialGradient xlink:href="#i" id="q" cx="24.130018" cy="37.967922" r="16.528622" fx="24.130018" fy="37.967922" gradientTransform="matrix(1 0 0 .23797 0 28.93278)" gradientUnits="userSpaceOnUse"/>
    <radialGradient xlink:href="#j" id="u" cx="18.240929" cy="21.817987" r="8.3085051" fx="18.240929" fy="21.817987" gradientUnits="userSpaceOnUse"/>
    <radialGradient xlink:href="#k" id="v" cx="15.414371" cy="13.078408" r="6.65625" fx="15.414371" fy="13.078408" gradientTransform="matrix(1.7705 0 0 1.53636 -2.0967584 4.0193967)" gradientUnits="userSpaceOnUse"/>
  </defs>
  <path fill="url(#l)" fill-rule="evenodd" d="M40.481863 36.421127a15.644737 8.3968948 0 1 1-31.2894745 0 15.644737 8.3968948 0 1 1 31.2894745 0z" color="#000" opacity=".15" overflow="visible" style="marker:none" transform="matrix(1.47014 0 0 .53547 -15.0383839 20.9218008)"/>
  <path fill="url(#m)" fill-rule="evenodd" stroke="url(#n)" d="m20 4.5-15 37h6l3.25-8h19.5l3.25 8h6l-15-37h-8zm4 5 7.71875 19h-15.4375L24 9.5z" transform="translate(-2.2742239 .0064608)"/>
  <path fill="none" stroke="url(#o)" d="M10.348932 40.5H6.4951948l14.1876342-35h6.670908l14.329092 35h-3.817171l-3.462095-8.030938-20.880146-.10079z" font-family="Bitstream Vera Sans" font-size="54.8693924" font-weight="700" opacity=".6" style="text-align:start;line-height:125%" transform="translate(-2.2742239 .0064608)"/>
  <path fill="none" stroke="url(#p)" d="M14.68934 29.5h18.569543L24.041631 6.8110299 14.68934 29.5z" opacity=".467033" transform="translate(-2.2742239 .0064608)"/>
  <g transform="translate(-5.1410042 -6.2185486) scale(1.1288)">
    <path fill="url(#q)" fill-rule="evenodd" d="M40.65864 37.967922a16.528622 3.9332814 0 1 1-33.0572434 0 16.528622 3.9332814 0 1 1 33.0572434 0z" color="#000" opacity=".17112301" overflow="visible" style="marker:none" transform="matrix(1.25293 0 0 1.03692 -3.2657205 4.8307353)"/>
    <path fill="#dcdcdc" fill-rule="evenodd" stroke="url(#r)" stroke-linecap="round" stroke-miterlimit="10" stroke-width="1.77178621" d="M27.733393 19.085193c-5.557482 0-10.067902 4.506303-10.067902 10.058712s4.51042 10.058713 10.067902 10.058713c2.375876 0 4.473091-.944415 6.195632-2.321242-.140234.686881-.05328 1.388502.516302 1.882785l7.48639 6.499476c.842189.730846 2.108151.635088 2.839665-.206333.731513-.841421.635668-2.106226-.206521-2.837072l-7.48639-6.499476c-.458525-.397906-1.019352-.515713-1.574723-.438457 1.356539-1.713942 2.297547-3.785321 2.297547-6.138394 0-5.552409-4.51042-10.058712-10.067902-10.058712zm-.05163.836487c5.216301 0 9.075761 3.266959 9.075761 9.067476 0 5.918049-3.971696 9.067476-9.075761 9.067476-4.986529 0-9.07576-3.737083-9.07576-9.067476 0-5.446654 3.977123-9.067476 9.07576-9.067476z" color="#000" overflow="visible" style="marker:none"/>
    <path fill="#dcdcdc" fill-rule="evenodd" d="M27.716552 19.042079c-5.575446 0-10.100447 4.52087-10.100447 10.091227s4.525001 10.091227 10.100447 10.091227c2.383556 0 4.48755-.947467 6.21566-2.328744-.140687.689101-.05346 1.392989.517971 1.888871l7.51059 6.520484c.844911.733209 2.114965.637143 2.848843-.206999.733879-.844141.637723-2.113035-.207188-2.846243l-7.510589-6.520486c-.460008-.399191-1.022648-.517379-1.579814-.439873 1.360925-1.719483 2.304974-3.797558 2.304974-6.158237 0-5.570357-4.525-10.091227-10.100447-10.091227zm-.0518 2.173495c4.288805 0 7.769574 3.477592 7.769574 7.762483 0 4.28489-3.480769 7.762482-7.769574 7.762482s-7.769574-3.477592-7.769574-7.762482c0-4.284891 3.480769-7.762483 7.769574-7.762483z" color="#000" overflow="visible" style="marker:none"/>
    <path fill="url(#s)" fill-rule="evenodd" d="M41.990086 45.304461c-.326842-1.550738.954112-3.282289 2.447229-3.266567l-7.34729-6.315763c-2.010733-.03869-2.91526 1.550349-2.578847 3.138007l7.478908 6.444323z" color="#000" overflow="visible" style="marker:none"/>
    <path fill="none" stroke="url(#t)" stroke-linecap="round" stroke-miterlimit="10" stroke-width="1.0419594" d="M28.549437 18.920233c0 6.101942-4.946602 11.048544-11.048544 11.048544-6.101943 0-11.0485443-4.946602-11.0485443-11.048544 0-6.101943 4.9466013-11.0485442 11.0485443-11.0485442 6.101942 0 11.048544 4.9466012 11.048544 11.0485442z" color="#000" overflow="visible" style="marker:none" transform="matrix(.8506 0 0 .84983 12.675435 12.726809)"/>
    <rect width="13.001335" height="3.0304024" x="49.97607" y="2.9826162" fill="none" stroke="#fff" stroke-linecap="round" stroke-miterlimit="10" stroke-width=".88591582" color="#000" opacity=".43315507" overflow="visible" rx="1.8928528" ry="1.6725091" style="marker:none" transform="matrix(.75328 .6577 -.64925 .76058 0 0)"/>
    <path fill="url(#u)" fill-rule="evenodd" stroke="#3063a3" stroke-linecap="round" stroke-miterlimit="10" stroke-width=".92807209" d="M25.897786 18.478292c0 4.588661-3.719844 8.308506-8.308505 8.308506s-8.308505-3.719845-8.308505-8.308506c0-4.58866 3.719844-8.308505 8.308505-8.308505s8.308505 3.719845 8.308505 8.308505z" color="#000" style="marker:none" transform="matrix(.95499 0 0 .95412 10.764255 11.27926)"/>
    <path fill="url(#v)" fill-rule="evenodd" d="M27.412026 21.98663c-3.555797 0-6.435178 2.876753-6.435178 6.429303 0 1.025992.28699 1.970002.71502 2.83101.855138.314907 1.763533.529161 2.727668.529161 4.213591 0 7.578704-3.316546 7.838734-7.461167-1.18192-1.395435-2.874658-2.328307-4.846244-2.328307z" color="#000" opacity=".83422457" overflow="visible" style="marker:none"/>
    <path fill="none" stroke="#224572" stroke-width=".88589269" d="M27.262207 30.605759c.29873-.469004.832175-.76746 1.28027-.76746.448094 0 6.46536 1.001962 6.46536 1.001962"/>
    <path fill="none" stroke="#224572" stroke-width=".88589269" d="M29.502679 25.745176c-.04268.469003-2.133782 4.711355-2.133782 4.711355.746823.788778.618796 1.726786 1.813714 3.901257m-1.984417-3.879939c-3.542078-2.046561-4.374254-2.345018-4.374254-2.345018m4.480943 2.345018-3.3287 2.067879m1.931736-2.999376c.965639-.723569 1.991631-1.205948 2.32357-1.085353"/>
  </g>
</svg>