<?xml version="1.0" encoding="UTF-8" standalone="no"?>
<svg xmlns="http://www.w3.org/2000/svg" width="48" height="48" version="1.0">
  <g transform="translate(-45.6621 -70.6637) scale(.19162)">
    <path fill="#ef2929" fill-rule="evenodd" stroke="#a40000" stroke-width="7" d="M311.42857 413.79075c20.00242-14.77931 37.81784 2.78578 37.85715 16.07143l-37.32143-7.67857-.53572-8.39286z"/>
    <path fill="#ef2929" fill-rule="evenodd" stroke="#a40000" stroke-width="7" d="M339.64286 411.82647c13.16602-10.51311 33.09975-4.47917 37.5 1.42857l-.71429 26.42857-35.53571-1.25-1.25-26.60714z"/>
    <path fill="#ef2929" fill-rule="evenodd" stroke="#a40000" stroke-width="7" d="M406.42857 416.46932c-22.6466-20.37113-42.14355 7.23799-41.42857 13.57143l30.71429 11.25 10.71428-24.82143zm-95.71428-1.96428c-51.64766-7.10482-66.48995 108.80243-67.85715 132.5 7.47615 11.86515 20.92094 13.78257 33.92857 16.42857-2.91269-1.90012-3.56464-7.14786-2.21041-15.36631 3.68216-22.34597 21.83886-119.51139 50.4247-125.34798-3.0839-3.48387-6.95641-6.61725-14.28571-8.21428z"/>
    <path fill="#ef2929" fill-rule="evenodd" stroke="#a40000" stroke-width="7" d="M323.92857 423.43361c10.40626.39182 20.9408.35607 28.57143 10-3.9671 4.39322-9.07897 8.16901-10.21578 13.43744-9.77341 45.2939-21.13259 109.65935-15.14136 120.13399-21.89839 8.88278-39.63899 9.07201-51.07143-3.92857-3.11956-2.83283-2.76596-9.13881-2.14286-15.71429 12.92405-53.03638 23.41048-113.71065 50-123.92857z"/>
    <path fill="#ef2929" fill-rule="evenodd" stroke="#a40000" stroke-width="7" d="M348.21429 437.00504c8.85859-10.77118 33.90601-6.73469 35.35714 0C403.23691 489.54635 409.03132 555.18997 407.5 569.1479c-21.34285 13.50954-58.30108 13.39004-81.42857 0-.80596-32.82787 7.65491-88.69105 15.26966-119.67755 1.42012-5.77883 4.39473-9.8778 6.8732-12.46531z"/>
    <path fill="#ef2929" fill-rule="evenodd" stroke="#a40000" stroke-width="7" d="M404.22405 426.6479c-8.62055-2.10818-18.79794-4.28679-26.42857 5.35714 3.9671 4.39322 9.07897 8.16901 10.21578 13.43744 9.77341 45.2939 24.70402 111.80221 18.71279 122.27685 22.25553 7.09706 38.9247 2.28629 47.5-6.07143 3.11956-2.83283.26596-9.13881-.35714-15.71429-12.92405-53.03638-23.05334-109.06779-49.64286-119.28571z"/>
    <path fill="#ef2929" fill-rule="evenodd" stroke="#a40000" stroke-width="7" d="M409.99999 415.93361c9.88633-2.53225 25.33032 4.88871 27.98363 9.14406 24.11076 38.66868 42.50863 94.02572 45.58781 114.42737 1.45242 13.29372-14.84952 19.49685-27.85715 22.14285 2.91269-1.90012-.05548-10.24054-2.43244-18.22345-7.61073-25.56025-18.26743-114.86853-57.56756-119.27655 3.37462-3.35466 6.72991-6.71792 14.28571-8.21428z"/>
    <path fill="none" stroke="#fff" stroke-width="7" d="M306.03125 421.1875c-9.28871.07023-17.06335 5.25983-24.34375 14.90625-7.2804 9.64642-13.38622 23.45951-18.0625 38.15625-8.87022 27.87755-12.65615 58.44498-13.5625 70.71875 2.60241 3.34019 5.79391 5.46371 10.03125 7.125 1.94681.76327 4.22499 1.33047 6.5 1.90625.01515-2.47529.15172-4.92502.375-7.28125.02789-.33667.08011-.67087.15625-1 1.38479-5.68275 2.76352-11.51431 4.125-17.34375 3.2677-16.72067 8.14948-38.27854 15.5625-60.0625.53275-1.65084 1.01278-2.84677 1.40625-4 .0102-.03132.02061-.06257.03125-.09375 1.30171-3.63851 2.60361-7.4433 4.15625-11.15625.8177-2.00109 1.66801-4.05569 2.625-6.125 1.32894-2.8736 2.69119-5.62829 4.1875-8.25.22682-.40899.37682-.65819.5-.875.0207-.02096.04154-.0418.0625-.0625.75645-1.28882 1.51183-2.54473 2.3125-3.75 2.90029-4.57533 6.05924-8.71044 9.6875-11.9375-.72254-.22686-1.42775-.45656-2.3125-.65625-1.18388-.14979-2.33082-.22711-3.4375-.21875zM412 422.71875c10.17589 6.08602 17.2455 17.25514 23.0625 30.5 10.73883 23.09911 16.58742 51.57499 20.9375 71.4375 1.32213 5.5965 2.61514 10.98548 3.96875 16.59375.01126.06236.02168.12486.03125.1875.00278.00934-.00278.02191 0 .03125 1.05314 3.53461 2.23679 7.30225 3.0625 10.96875 3.10619-1.06154 5.99263-2.31882 8.21875-3.75 4.26137-2.73965 5.71906-4.71632 5.3125-8.4375-2.74384-18.17977-21.19284-73.98866-44.5625-111.46875.46619.74767-.40574-.42276-1.90625-1.375s-3.61261-2.03278-5.90625-2.90625c-4.48183-1.70678-9.6424-2.34969-12.21875-1.78125zm-86.625 7.8125c-3.8603 1.83046-7.78368 5.48335-11.59375 11.21875-.74639 1.17354-1.36602 2.10416-1.875 3-.0207.02096-.04154.0418-.0625.0625-.11182.19051-.24831.48101-.4375.8125-1.27691 2.30242-2.50098 4.63124-3.6875 7.1875-.74864 1.61287-1.5134 3.5646-2.375 5.625-1.34099 3.28171-2.62689 6.71687-3.875 10.375-.0102.03132-.02061.06257-.03125.09375-.47288 1.32178-.93774 2.62134-1.375 3.90625-5.61595 17.40238-10.34394 38.01139-15.1875 58.75-1.32933 6.80217-2.87945 14.42803-3.40625 17.625-.60852 3.69292-.67075 6.52119-.46875 7.96875.0874.62635.14864.75875.15625.8125.01045.01038.02087.0208.03125.03125.58801.47764 1.0946 1.04755 1.5 1.6875 4.16762 4.1148 8.89146 6.12384 15.21875 6.5 5.79836.34472 12.95565-.93583 21.03125-3.6875-.67476-5.50804-.42897-12.11636.28125-20.25.81863-9.37528 2.32179-20.43204 4.15625-32.15625 3.02432-23.04393 7.10079-45.77849 11.15625-62.28125.76002-3.0927 1.93998-5.75751 3.125-7.96875 1.34746-2.51434 2.82733-4.5451 4.34375-6.3125-1.37796-.75451-2.80018-1.3559-4.46875-1.78125-3.37423-.86015-7.56959-1.04198-12.15625-1.21875zm65.75 1.375c-.72269.067-1.29711.34942-1.9375.5.34521.63697.60585 1.37823.84375 2.15625l.09375-.03125c.16676.44556.19356.54251.28125.8125 1.85584 2.30184 3.6597 5.02036 4.4375 8.625 1.06359 4.92914 2.28953 10.65607 3.4375 15.96875 7.44761 26.32076 12.05296 53.14576 14.40625 74.03125.01052.02078.02094.04161.03125.0625.00217.01924-.00216.04327 0 .0625 1.73465 11.70967 2.77867 21.02624 2.125 28.46875 16.45192 3.71297 27.8905-.12505 33.75-5.3125-.0051-.28526.03105-.41526-.0625-1.0625-.27145-1.8781-1.03336-5.07024-1.46875-8.59375-.22115-.90756-.40623-1.7243-.59375-2.5-.01157-.07275-.02198-.14567-.03125-.21875-.01186-.04072-.01939-.1153-.03125-.15625-.0232-.10368-.04404-.20787-.0625-.3125-1.28404-4.48167-2.60532-10.23921-4.03125-16.75-6.1446-26.00978-12.24332-51.00883-20.0625-68.8125-5.91578-12.72478-13.16193-21.8936-20.84375-25.625-3.8402-.90442-7.46946-1.57319-10.28125-1.3125zm-25.28125 5.71875c-3.55561.04247-7.03364.6547-9.375 1.8125-2.94869 3.12584-5.6309 5.64212-6.65625 7.34375-.3972.65917-.60238 1.16803-.6875 1.5625-4.27078 19.7925-8.66145 42.99993-11.9375 63.9375-2.41676 18.41461-3.94736 36.40862-4.03125 50.875.00906.04714.16691.55755.0625.375.29439.50067.52533 1.03604.6875 1.59375 19.48204 8.97067 48.726 8.82615 66.375-.15625.10292-.22466.21766-.44372.34375-.65625.10403-5.87607-.38805-15.62301-1.8125-28.375a8.13802833 8.13802833 0 0 1 0-.03125c-.00269-.01809.00269-.0444 0-.0625-3.11452-20.92855-8.85658-48.17078-14.1875-72.84375-.0119-.04174-.01934-.08327-.03125-.125-2.00789-7.03529-4.23601-13.92607-6.65625-20.625-.98015-1.04809-2.14858-2.24025-3.375-3.5-2.26944-.70561-5.38985-1.16476-8.71875-1.125z" opacity=".457265"/>
    <path fill="none" stroke="#fff" stroke-linejoin="round" stroke-width="7" d="m347.14286 420.3979-.53572-5.00001c7.72067-2.91887 11.27637-3.28419 19.64286-.71428-4.26283 2.16444-6.0137 5.76428-6.96428 9.82143l-5.17858 1.07143-6.96428-5.17857z" opacity=".423077"/>
    <path fill="none" stroke="#fff" stroke-linejoin="round" stroke-width="4.73536" d="m326.01942 415.24281-4.61883-1.19107c6.77202-.23216 6.19191-.04615 12.68134 1.47008-3.30645 1.277.91808.27197.18077 2.66566l-5.48585-.48533-2.75743-2.45934z" opacity=".423077"/>
    <path fill="none" stroke="#fff" stroke-linejoin="round" stroke-width="5.48163" d="m376.68493 425.55144-4.45872-.37652c6.49996-5.93435 13.01802-12.60284 23.94044-8.93252l-3.77562 2.51708c-6.28596-.8247-12.87439 4.9991-15.7061 6.79196z" opacity=".423077"/>
  </g>
</svg>