<?xml version="1.0" encoding="UTF-8" standalone="no"?>
<svg xmlns="http://www.w3.org/2000/svg" xmlns:xlink="http://www.w3.org/1999/xlink" width="48" height="48">
  <defs>
    <linearGradient id="c">
      <stop offset="0" stop-color="#fffeff" stop-opacity=".33333334"/>
      <stop offset="1" stop-color="#fffeff" stop-opacity=".21568628"/>
    </linearGradient>
    <linearGradient id="a">
      <stop offset="0" stop-color="#a40000"/>
      <stop offset="1" stop-color="#ff1717"/>
    </linearGradient>
    <linearGradient id="b">
      <stop offset="0" stop-color="#ffe69b"/>
      <stop offset="1" stop-color="#fff"/>
    </linearGradient>
    <linearGradient id="d">
      <stop offset="0"/>
      <stop offset="1" stop-opacity="0"/>
    </linearGradient>
    <linearGradient xlink:href="#a" id="f" x1="36.917976" x2="19.071495" y1="66.288063" y2="5.5410109" gradientUnits="userSpaceOnUse"/>
    <linearGradient xlink:href="#b" id="g" x1="43.93581" x2="20.064686" y1="53.835983" y2="-8.5626707" gradientUnits="userSpaceOnUse"/>
    <linearGradient xlink:href="#c" id="h" x1="21.993773" x2="20.917078" y1="33.955299" y2="15.814602" gradientTransform="translate(-.071859 .01968356) scale(1.003)" gradientUnits="userSpaceOnUse"/>
    <radialGradient xlink:href="#d" id="e" cx="23.857143" cy="40" r="17.142857" fx="23.857143" fy="40" gradientTransform="matrix(1 0 0 .5 0 20)" gradientUnits="userSpaceOnUse"/>
  </defs>
  <path fill="url(#e)" d="M41 40a17.142857 8.5714283 0 1 1-34.2857132 0A17.142857 8.5714283 0 1 1 41 40z" color="#000" display="block" opacity=".6" overflow="visible" style="marker:none" transform="matrix(1.07055 0 0 .525 -.892755 22.5)"/>
  <path fill="url(#f)" stroke="#b20000" stroke-width="1.08638" d="M46.857143 23.928572a23.357143 23.357143 0 1 1-46.7142864 0 23.357143 23.357143 0 1 1 46.7142864 0z" transform="translate(2.368532 .97408) scale(.92049)"/>
  <path fill="none" stroke="url(#g)" stroke-width="1.16809607" d="M49.901535 26.635273a23.991123 23.991123 0 1 1-47.9822464 0 23.991123 23.991123 0 1 1 47.9822464 0z" opacity=".34659089" transform="translate(1.818275 .197769) scale(.8561)"/>
  <g fill="#efefef" transform="translate(-4.3305637 -3.787671) scale(1.2049)">
    <path d="M23.71875 8.84375c-7.119156 4e-7-12.875 5.787092-12.875 12.90625.000002 7.119159 5.755842 12.875 12.875 12.875 7.11916.000002 12.90625-5.755842 12.90625-12.875.000001-7.119157-5.787092-12.90625-12.90625-12.90625zm0 2.625c5.666269 0 10.281247 4.614982 10.28125 10.28125 0 5.666269-4.61498 10.250002-10.28125 10.25-5.666269 0-10.250001-4.583731-10.25-10.25 0-5.666269 4.583733-10.28125 10.25-10.28125z"/>
    <path d="M23.71875 14.5C19.723306 14.5 16.5 17.754554 16.5 21.75c.000004 3.995446 3.223304 7.21875 7.21875 7.21875 3.40939 0 6.265217-2.356017 7.03125-5.53125h-3.46875c-.636632 1.32652-1.993658 2.249999-3.5625 2.25-2.179334 0-3.937501-1.758165-3.9375-3.9375 0-2.179334 1.758168-3.96875 3.9375-3.96875 1.619133 0 3.016099.979368 3.625 2.375h3.4375C30.057738 16.92256 27.169624 14.5 23.71875 14.5z"/>
  </g>
  <path fill="url(#h)" d="M43.428679 21.800186c0 10.863043-10.38533-6.28507-18.73065.387545-8.150652 6.516964-20.658632 12.227046-20.658632 1.364003 0-11.117238 8.721431-21.4309754 19.584477-21.4309754 10.863046 0 19.804805 8.8163824 19.804805 19.6794274z"/>
</svg>