<?xml version="1.0" encoding="UTF-8" standalone="no"?>
<svg xmlns="http://www.w3.org/2000/svg" xmlns:xlink="http://www.w3.org/1999/xlink" width="48" height="48">
  <defs>
    <linearGradient id="c">
      <stop offset="0"/>
      <stop offset="1" stop-opacity="0"/>
    </linearGradient>
    <linearGradient id="b">
      <stop offset="0" stop-color="#fffeff" stop-opacity=".33333334"/>
      <stop offset="1" stop-color="#fffeff" stop-opacity=".21568628"/>
    </linearGradient>
    <linearGradient id="a">
      <stop offset="0" stop-color="#ffe69b"/>
      <stop offset="1" stop-color="#fff"/>
    </linearGradient>
    <linearGradient xlink:href="#a" id="e" x1="43.93581" x2="20.064686" y1="53.835983" y2="-8.5626707" gradientUnits="userSpaceOnUse"/>
    <linearGradient xlink:href="#b" id="f" x1="21.993773" x2="20.917078" y1="33.955299" y2="15.814602" gradientTransform="translate(-.071859 .01968356) scale(1.003)" gradientUnits="userSpaceOnUse"/>
    <radialGradient xlink:href="#c" id="d" cx="23.857143" cy="40" r="17.142857" fx="23.857143" fy="40" gradientTransform="matrix(1 0 0 .5 0 20)" gradientUnits="userSpaceOnUse"/>
  </defs>
  <ellipse cx="23.857143" cy="40" fill="url(#d)" opacity=".6" rx="17.142857" ry="8.5714283" transform="matrix(1.07055 0 0 .525 -.892755 22.5)"/>
  <circle cx="23.5" cy="23.928572" r="23.357143" fill="#73d216" stroke="#4e9a06" stroke-width="1.08638" transform="translate(2.368532 .97408) scale(.92049)"/>
  <circle cx="25.910412" cy="26.635273" r="23.991123" fill="none" stroke="url(#e)" stroke-width="1.16809607" opacity=".34659089" transform="translate(1.818275 .197769) scale(.8561)"/>
  <g fill="#efefef" transform="translate(-60.75 -.87495689)">
    <path d="M70.75 19.875h28v8h-28z"/>
    <path d="M88.75 9.875v28h-8v-28z"/>
  </g>
  <path fill="url(#f)" d="M43.428679 21.800186c0 10.863043-10.38533-6.28507-18.73065.387545-8.150652 6.516964-20.658632 12.227046-20.658632 1.364003 0-11.117238 8.721431-21.4309754 19.584477-21.4309754 10.863046 0 19.804805 8.8163824 19.804805 19.6794274z"/>
</svg>