<?xml version="1.0" encoding="UTF-8" standalone="no"?>
<svg xmlns="http://www.w3.org/2000/svg" xmlns:xlink="http://www.w3.org/1999/xlink" width="48" height="48" version="1.0">
  <defs>
    <linearGradient id="a">
      <stop offset="0" stop-color="#eeeeec"/>
      <stop offset="1" stop-color="#eeeeec" stop-opacity="0"/>
    </linearGradient>
    <linearGradient id="b">
      <stop offset="0" stop-opacity=".62068963"/>
      <stop offset="1" stop-opacity="0"/>
    </linearGradient>
    <linearGradient xlink:href="#a" id="d" x1="14.5625" x2="30.75" y1="-2.875" y2="28.6875" gradientUnits="userSpaceOnUse"/>
    <radialGradient xlink:href="#b" id="c" cx="17.3125" cy="25.53125" r="9.6875" fx="17.3125" fy="25.53125" gradientTransform="matrix(2.18291 0 0 .77004 -13.791664 20.545444)" gradientUnits="userSpaceOnUse"/>
  </defs>
  <path fill="url(#c)" d="M45.14696 40.20564a21.14696 7.4598026 0 0 1-42.29392 0 21.14696 7.4598026 0 1 1 42.29392 0z" opacity=".4"/>
  <path fill="#6bbe1b" stroke="#499106" stroke-miterlimit="100" d="M31.09375 4.5625c-1.948575-.023159-4.321562.5861129-6.8125 1.875-2.480083-1.247847-4.809618-1.8535507-6.75-1.8125-2.007397.042468-3.665123.7618679-4.40625 2.15625-.741127 1.3943821-.48714 3.313457.84375 5.53125.819984 1.366421 2.231458 2.928247 3.96875 4.5625-2.317371-1.147254-4.599416-2.045123-6.46875-2.03125-.758103.0056-1.478328.148583-2.0625.5-.584172.351417-1.0150235.892455-1.25 1.625C7.7053713 18.374374 7.9706547 20.413834 9 23.25c-2.2046725 1.827606-3.2193402 3.667796-3.125 5.34375.098823 1.755589 1.342806 3.181556 3.09375 4.0625 3.242372 1.631319 8.33628 1.475298 12.53125-1.4375-.283099 2.068277-1.016214 4.102415-2.09375 5.78125-1.257668 1.959487-2.855663 3.442265-4.25 4l-.5625.21875.323549.356369c.412041.66779 1.355575 1.343248 2.15847 1.669519.802895.326271 1.555254.381478 2.418869.532821 1.72723.302686 3.192862.410041 3.192862.410041h.25L23.09375 44s4.390177-5.544371 3.8125-13.03125c4.232814 3.059503 9.453431 3.221086 12.75 1.5625 1.750944-.880944 2.994927-2.306911 3.09375-4.0625.09434-1.675954-.920327-3.516144-3.125-5.34375 1.029345-2.836166 1.294629-4.875626.84375-6.28125-.234977-.732545-.665828-1.273583-1.25-1.625-.584172-.351417-1.304397-.494374-2.0625-.5-1.869334-.01387-4.151379.883996-6.46875 2.03125 1.737267-1.63405 3.148782-3.197358 3.96875-4.5625 1.330863-2.2157176 1.555011-4.1122086.8125-5.5-.742511-1.3877914-2.367289-2.1011383-4.375-2.125z" color="#000" font-family="Bitstream Vera Sans" overflow="visible" style="text-indent:0;text-align:start;line-height:normal;text-transform:none;block-progression:tb;marker:none;-inkscape-font-specification:Bitstream Vera Sans"/>
  <path fill="url(#d)" d="M31.09375 5.5625c-1.784373-.021207-4.075421.5671379-6.53125 1.875l-.25.125-.21875-.125c-2.45546-1.2771598-4.777814-1.850257-6.5625-1.8125-1.784686.037757-2.979187.6451243-3.5 1.625s-.447544 2.5148401.78125 4.5625c.97937 1.632021 3.234509 3.938283 5.875 6.34375l-.75.65625c-3.395866-2.222247-5.951865-2.98743-8.46875-2.96875-.634236.0047-1.147617.11297-1.53125.34375-.3836335.23078-.6719272.558089-.84375 1.09375-.3436456 1.071323-.1686311 3.003906.9375 5.9375l.125.34375-.21875.15625c7.255354-3.233653 11.710395-3.329921 18.625-1 3.273722 1.103102 7.089321.303828 10.5-1.03125.66413-2.153686.753808-3.642576.46875-4.53125-.171823-.535661-.460116-.86297-.84375-1.09375-.383634-.23078-.897014-.33905-1.53125-.34375-2.516885-.01868-5.244759 1.543378-8.875 3.3125L27.625 18.5c3.122406-3.214029 4.963091-4.774014 6.1875-6.8125 1.22882-2.0458297 1.30068-3.5604087.78125-4.53125-.51943-.9708413-1.715627-1.572543-3.5-1.59375z" color="#000" font-family="Bitstream Vera Sans" opacity=".5" overflow="visible" style="text-indent:0;text-align:start;line-height:normal;text-transform:none;block-progression:tb;marker:none;-inkscape-font-specification:Bitstream Vera Sans"/>
  <path fill="#4e9a06" stroke="#428205" stroke-linecap="round" stroke-linejoin="round" stroke-miterlimit="100" d="M24.683709 27.993068c1.423553 6.443968-3.520661 14.33827-4.589959 14.913182 1.203552.180305 2.139934.24357 2.34375.25.251566-.314838 4.500008-5.686788 3.5-13L25.75 28.875l.46875.40625z" opacity=".7"/>
  <path fill="none" stroke="#a3d96f" d="M31.09375 5.5625c1.784373.021207 2.98057.6229087 3.5 1.59375.51943.9708413.44757 2.4854203-.78125 4.53125-1.224409 2.038486-3.080719 3.582846-6.203125 6.796875l.677618.539887c3.630241-1.769122 6.352372-3.324191 8.869257-3.305512.634236.0047 1.147616.11297 1.53125.34375.383634.23078.671927.558089.84375 1.09375.343646 1.071323.168631 3.003906-.9375 5.9375l-.125.34375.28125.21875c2.287631 1.796839 3.074118 3.464548 3 4.78125-.07412 1.316702-.991731 2.44418-2.53125 3.21875-3.079037 1.549141-8.437893 1.444792-12.46875-1.9375l-1-.84375.1875 1.28125c1.000008 7.313212-3.248434 12.685162-3.5 13-.234553-.0074-1.351738-.05103-2.84375-.3125-.819796-.143664-1.67503-.340555-2.375-.625-.490276-.199233-.753754-.465568-1.03125-.71875 1.471536-.796541 2.896505-2.152092 4.0625-3.96875 1.341369-2.089897 2.228398-5.027109 2.349112-7.666053L22.75 29.09375l-.875.75c-4.030857 3.382292-9.389713 3.486641-12.46875 1.9375-1.5395186-.77457-2.4571323-1.902048-2.53125-3.21875-.074118-1.316702.7123693-2.984411 3-4.78125l.28125-.21875-.125-.34375c-1.1061311-2.933594-1.2811456-4.866177-.9375-5.9375.1718228-.535661.4601165-.86297.84375-1.09375.383633-.23078.897014-.339043 1.53125-.34375 2.516885-.01868 5.072884.746503 8.46875 2.96875l.749062-.653694c-2.640491-2.405467-4.894692-4.714285-5.874062-6.346306-1.228794-2.0476599-1.302063-3.5826243-.78125-4.5625s1.715314-1.5872432 3.5-1.625c1.784686-.037757 4.10704.5353402 6.5625 1.8125l.21875.125.25-.125c2.455829-1.3078621 4.746877-1.8962073 6.53125-1.875z" color="#000" font-family="Bitstream Vera Sans" overflow="visible" style="text-indent:0;text-align:start;line-height:normal;text-transform:none;block-progression:tb;marker:none;-inkscape-font-specification:Bitstream Vera Sans"/>
  <path fill="none" stroke="#4e9a06" stroke-linecap="round" d="M26.212849 25.195806c4.154252-1.635185 7.20365.441942 9.766912-.928077" opacity=".7"/>
  <path fill="none" stroke="#4e9a06" stroke-linecap="round" stroke-linejoin="round" stroke-miterlimit="100" d="M12.330175 23.42804c2.298097-1.104855 7.380427 2.209708 9.545941 1.679378M24.3125 9.7720397c-2.127025 3.3587563 1.817665 7.5572033 0 11.6672623" opacity=".7"/>
</svg>