<?xml version="1.0" encoding="UTF-8" standalone="no"?>
<svg xmlns="http://www.w3.org/2000/svg" xmlns:xlink="http://www.w3.org/1999/xlink" width="48" height="48">
  <defs>
    <radialGradient xlink:href="#a" id="b" cx="23.857143" cy="40" r="17.142857" fx="23.857143" fy="40" gradientTransform="matrix(1 0 0 .5 0 20)" gradientUnits="userSpaceOnUse"/>
    <linearGradient id="a">
      <stop offset="0"/>
      <stop offset="1" stop-opacity="0"/>
    </linearGradient>
  </defs>
  <path fill="url(#b)" d="M41 40a17.142857 8.5714283 0 1 1-34.2857132 0A17.142857 8.5714283 0 1 1 41 40z" color="#000" display="block" opacity=".6" overflow="visible" style="marker:none" transform="matrix(1.07055 0 0 .525 -.892755 22.5)"/>
  <g fill="#f57900" stroke="#8f5902">
    <path stroke-width="1.00000193" d="M45.49996985 23.00004338c0 11.87410558-9.62586427 21.49996985-21.49996985 21.49996985S2.50002979 34.87414896 2.50002979 23.00004338 12.12589442 1.5000729 24 1.5000729s21.49996985 9.62586491 21.49996985 21.4999705z"/>
    <path fill="none" stroke="#fff" stroke-width=".99999581" d="M44.49999996 22.99999997a20.49999997 20.49999997 0 1 1-40.99999994 0 20.49999997 20.49999997 0 1 1 40.99999994 0z" opacity=".35"/>
    <path fill="#fff" stroke="none" d="M24 3C12.954305 3 4 11.954305 4 23c0 1.686052.2321382 3.310816.625 4.875 3.2039734 4.793264 13.253522-.120144 20.21875-5.59375 8.00805-6.293106 17.842029 8.359347 19.125 1.4375C43.977181 23.480132 44 23.240675 44 23c0-11.045695-8.954305-20-20-20z" opacity=".25"/>
  </g>
  <g style="-inkscape-font-specification:DejaVu Sans">
    <path fill="#fff" d="M10.652343 31.1871731h3.56836v4.109745h-3.56836v-4.109745m0-20.047143h3.56836v10.597965l-.351563 5.776296h-2.847656l-.369141-5.776296v-10.597965m10.587891 20.047143h3.568359v4.109745h-3.568359v-4.109745m3.462891-2.378474h-3.357422v-2.491736c-.000007-1.08945.164055-1.984748.492187-2.685896.328118-.701126 1.019523-1.515523 2.074219-2.443195l1.582031-1.440029c.667957-.571681 1.148426-1.111016 1.441407-1.61801.304674-.506959.457018-1.024721.457031-1.55329-.000013-.959999-.386732-1.736643-1.160156-2.329934-.76173-.593249-1.775401-.889883-3.041016-.889905-.925789.000022-1.916023.18879-2.970703.566304-1.042974.377556-2.132816.927679-3.269531 1.650369v-3.041858c1.101558-.61482 2.214839-1.073256 3.339843-1.375309 1.136712-.302003 2.308586-.453017 3.515625-.453042 2.156239.000025 3.884753.52318 5.185547 1.569469 1.312484 1.046336 1.968734 2.427036 1.96875 4.142106-.000016.81981-.210954 1.601847-.632812 2.346114-.421891.733513-1.160171 1.564091-2.214844 2.491735l-1.546875 1.391489c-.550793.506989-.943371.906097-1.177734 1.197327-.222667.280466-.38087.555528-.47461.825185-.07032.226532-.123057.501594-.158203.825185-.03517.323612-.05275.765867-.05273 1.326768v1.990153m8.988277 2.378474h3.568359v4.109745h-3.568359v-4.109745m0-20.047143h3.568359v10.597965l-.351562 5.776296h-2.847657l-.36914-5.776296v-10.597965" font-family="Sans" font-size="36" font-weight="400" letter-spacing="0" style="line-height:125%" word-spacing="0"/>
  </g>
</svg>