<?xml version="1.0" encoding="UTF-8" standalone="no"?>
<svg xmlns="http://www.w3.org/2000/svg" xmlns:xlink="http://www.w3.org/1999/xlink" width="48" height="48" version="1.0">
  <defs>
    <radialGradient xlink:href="#a" id="b" cx="17.3125" cy="25.53125" r="9.6875" fx="17.3125" fy="25.53125" gradientTransform="matrix(1 0 0 .35161 0 16.55413)" gradientUnits="userSpaceOnUse"/>
    <linearGradient id="a">
      <stop offset="0"/>
      <stop offset="1" stop-opacity="0"/>
    </linearGradient>
  </defs>
  <path fill="url(#b)" d="M27 25.53125a9.6875 3.40625 0 1 1-19.375 0 9.6875 3.40625 0 1 1 19.375 0z" opacity=".40909089" overflow="visible" style="marker:none" transform="translate(-13.50372 -14.35012) scale(2.18291)"/>
  <path fill="#888a85" stroke="#2e3436" stroke-linecap="round" stroke-linejoin="round" stroke-width=".98214942" d="M46.138718 23.42804a22.008699 21.213203 0 1 1-44.0173992 0 22.008699 21.213203 0 1 1 44.0173992 0z" transform="matrix(.94463 0 0 .98005 1.504174 -1.556912)"/>
  <path fill="none" stroke="#babdb6" stroke-linecap="round" stroke-linejoin="round" stroke-width=".98214942" d="M46.138718 23.42804a22.008699 21.213203 0 1 1-44.0173992 0 22.008699 21.213203 0 1 1 44.0173992 0z" transform="matrix(.91409 0 0 .94836 2.380576 -.905815)"/>
  <path fill="#fffeff" fill-opacity=".21390375" d="M43.676426 20.47678c0 10.830616-6.052169-4.306199-18.674738.386388-12.722516 4.729744-20.5666345 10.444228-20.5666345-.386388C4.4350535 9.6461627 13.22512.85609769 24.05574.85609769c10.830619 0 19.620686 8.79006501 19.620686 19.62068231z"/>
  <path fill="#fff" d="M14.55583 17.441713c-.537196-.903466-1.466182-1.796581-2.136604-2.054183l-.108119-.041534v-.87003l.069137-.009482 6.088376-.009477c.003585.165685.007066.510939.002269.834917-.80515.100076-1.775702.493602-1.506749 1.396158 1.534988 3.391458 2.931731 6.843875 4.447159 10.243886l2.601098-4.863806c-1.006511-2.061666-1.739756-4.147265-2.841568-6.169897-.359227-.582441-1.330683-.598686-2.018718-.621205l.002326-.805143 5.754952.019817.016531.777505c-.518793.071701-1.130343.194984-1.060997.823725l1.633383 3.612457c.537537-1.146713 1.134992-2.269112 1.609068-3.444401.215203-.930549-.831691-.97683-1.499348-1.002737l-.011733-.766555 5.142594-.019811v.784205c-.751723.053139-1.46283.26995-1.877413.825714-1.007812 1.557965-1.755375 3.325811-2.540341 5.018021.775587 1.834042 1.583923 3.665555 2.376643 5.347207l4.383012-10.109945c-.295673-.666415-.965268-.901814-1.622527-1.054285l-.033548-.815599 4.860406.039144-.000105.793002c-.216564.033681-.423905.100461-.624426.187956-.380041.176392-.739042.526463-.979831.955496l-6.041429 13.899936-1.012414.00784-2.87407-6.769025-3.488753 6.768513-1.047425.000122c-2.038322-4.245813-3.513014-8.713794-5.660836-12.908506z"/>
</svg>