<svg xmlns="http://www.w3.org/2000/svg" height="56" width="56" xmlns:xlink="http://www.w3.org/1999/xlink">
<defs>
<linearGradient id="a">
<stop stop-color="#fffcde"/>
<stop stop-color="#f6e76a" offset="0.64"/>
<stop stop-color="#ffb738" offset="1"/>
</linearGradient>
<radialGradient id="e" gradientUnits="userSpaceOnUse" cy="38.6" cx="-23.45" gradientTransform="matrix(1.358 0 0 0.417 63.2 11.53)" r="15.76">
<stop stop-color="#777"/>
<stop offset="1"/>
</radialGradient>
<radialGradient id="d" fx="27.64" fy="12.66" xlink:href="#a" gradientUnits="userSpaceOnUse" cy="12.57" cx="27.85" r="18.54"/>
<radialGradient id="c" xlink:href="#a" gradientUnits="userSpaceOnUse" cy="32.88" cx="24.87" gradientTransform="matrix(1 0 0 1.272 -4.33 -13.34)" r="17.58"/>
<radialGradient id="b" gradientUnits="userSpaceOnUse" cy="38.57" cx="24.71" gradientTransform="matrix(1 0 0 0.333 7.37 22)" r="19.71">
<stop/>
<stop stop-opacity="0" offset="1"/>
</radialGradient>
</defs>
<use xlink:href="#g" transform="matrix(0.928 0 0 0.928 -7.62 17.38)"/>
<path id="g" opacity="0.53" d="m51.8 34.89a19.72 6.573 0 1 1 -39.43 0 19.72 6.573 0 1 1 39.43 0z" fill="url(#b)"/>
<g stroke-linejoin="round" stroke-linecap="round">
<path d="m 49.66 19.41 a 18 18 0 0 1 -36.1 0 18 18 0 1 1 36.1 0 z" stroke="#82720a" fill="url(#d)"/>
<path opacity="0.68" d="m 48.81 19.41 a 17.1 17.1 0 0 1 -34.3 0 17.1 17.1 0 1 1 34.3 0 z" stroke="#fff" fill="none"/>
</g>
<g opacity="0.36" fill="#fff">
<path d="m29.12 15.17c0 1.875-1.125 3.375-2.5 3.375s-2.625-1.5-2.625-3.375 1.125-3.375 2.5-3.375 2.5 1.5 2.5 3.375h0.125z"/>
<path d="m38.41 15.17c0 1.875-1.125 3.375-2.5 3.375s-2.5-1.5-2.5-3.375 1.125-3.375 2.5-3.375 2.5 1.5 2.5 3.375z"/>
</g>
<path id="f" d="m38.41 14.7c0 1.875-1.125 3.375-2.5 3.375s-2.5-1.5-2.5-3.375 1.125-3.375 2.5-3.375 2.5 1.5 2.5 3.375z"/>
<use xlink:href="#f" x="-9.29"/>
<rect rx="0.5" height="1" width="20" y="25.32" x="21.37" fill="url(#e)"/>
<rect opacity="0.36" rx="0.5" height="1" width="20" y="26.32" x="21.37" fill="#fff"/>
<path stroke-linejoin="round" d="m25.96 52.5c-7.7 1.64-14.98 3.18-19.34-17.36-3.97-18.58 0.19-15.72 2.13-14.54l-0.58-3.23c-0.43-2.39 5.25-3.45 5.65-1.58l-0.61-2.94c-0.65-3.12 5.95-4.19 6.44-2.14l1.048 4.495c-0.71-2.63 4.38-4.71 5.47-0.34 1.46 6.85 2.96 14.23 3.34 16.43 3.27 2.37 3.14-12.57 8.82-11 2.79 1.9-2.54 20.6-3.12 22.58-0.56 1.89-3.46 8.42-9.23 9.65z" stroke-opacity="0.9" stroke="#000" stroke-width="1.5" fill="url(#c)"/>
<g stroke-linecap="round" fill="none">
<g>
<g stroke="#8c7300">
<path d="m9.85 36.7c3.2-5.387 11.19-6.873 15.79-6.295"/>
<path d="m 27.59 35.4 s -4.68 2 -4.56 12.22"/>
</g>
<path opacity="0.8" d="m13.69 13.27 3.742 17.61m2.005-18.83 3.913 18.24m-14.49-10.89l3.091 14.79" stroke="#000"/>
</g>
<path opacity="0.7" stroke-linejoin="round" d="m28.3 35.87s-4.68 2-4.56 12.22m-13.17-10.87c3.7-5.38 11.17-6.21 14.83-5.84m-12.04-15.14c-1.266-1.487-4.492-0.7874-4.39 1.11 0.13 1.17 0.4273 2.449 0.4273 2.449m-1.068 1.24c-0.847-0.34-2.238-1.77-2.458 0.77-0.45 4 0.6386 8 1.349 11.98 1.13 5.25 2.34 10.71 5.52 15.1 1.74 2.55 4.85 3.97 7.91 3.64 2.58-0.31 5.31-0.53 7.64-1.8 3.79-2.28 5.92-6.52 6.84-10.73 1.41-5.5 2.93-11.1 3.16-16.75 0.2307-2.186-0.1111-3.341-2.32-1.4-2.24 2.84-2.32 6.73-4.26 9.73-0.7654 1.598-2.595 1.775-3.28-1.48-1.05-5.22-2-10.46-3.28-15.63-0.7885-2.498-3.994-1.91-3.951 1.108m-1.77-1.232c-0.0652 0.01185-0.5092-2.347-0.7499-3.56-1.74-0.82-3.66-0.38-4.43 1.04-0.32 0.6195 0.3462 1.95 0.4262 2.91" stroke="#fff" stroke-width="1.2"/>
</g>
</svg>