<?xml version="1.0" encoding="UTF-8" standalone="no"?>
<svg
   xmlns:dc="http://purl.org/dc/elements/1.1/"
   xmlns:cc="http://creativecommons.org/ns#"
   xmlns:rdf="http://www.w3.org/1999/02/22-rdf-syntax-ns#"
   xmlns:svg="http://www.w3.org/2000/svg"
   xmlns="http://www.w3.org/2000/svg"
   xmlns:xlink="http://www.w3.org/1999/xlink"
   xmlns:sodipodi="http://sodipodi.sourceforge.net/DTD/sodipodi-0.dtd"
   xmlns:inkscape="http://www.inkscape.org/namespaces/inkscape"
   viewBox="0 0 48 48"
   id="svg2"
   version="1.1"
   inkscape:version="0.48.2 r9819"
   width="100%"
   height="100%"
   sodipodi:docname="smile-sad.svg">
  <metadata
     id="metadata45">
    <rdf:RDF>
      <cc:Work
         rdf:about="">
        <dc:format>image/svg+xml</dc:format>
        <dc:type
           rdf:resource="http://purl.org/dc/dcmitype/StillImage" />
        <dc:title></dc:title>
      </cc:Work>
    </rdf:RDF>
  </metadata>
  <sodipodi:namedview
     pagecolor="#ffffff"
     bordercolor="#666666"
     borderopacity="1"
     objecttolerance="10"
     gridtolerance="10"
     guidetolerance="10"
     inkscape:pageopacity="0"
     inkscape:pageshadow="2"
     inkscape:window-width="833"
     inkscape:window-height="712"
     id="namedview43"
     showgrid="false"
     inkscape:zoom="9.889631"
     inkscape:cx="26.114633"
     inkscape:cy="28.183405"
     inkscape:window-x="83"
     inkscape:window-y="41"
     inkscape:window-maximized="0"
     inkscape:current-layer="svg2" />
  <defs
     id="defs4">
    <radialGradient
       id="rad1"
       fx="29.158"
       fy="15.756"
       gradientUnits="userSpaceOnUse"
       cy="15.721"
       cx="29.288"
       r="8.9021">
      <stop
         style="stop-color:#fffcde;"
         offset="0"
         id="stop7" />
      <stop
         style="stop-color:#f6e76a;"
         offset="0.64486"
         id="stop9" />
      <stop
         style="stop-color:#ffb738;"
         offset="1"
         id="stop11" />
    </radialGradient>
    <radialGradient
       id="rad2"
       gradientUnits="userSpaceOnUse"
       cy="39.592999"
       cx="25.052999"
       gradientTransform="matrix(1.2547513,0,0,1.25,-6.5984842,-13.3721)"
       r="15.757"
       fx="25.052999"
       fy="39.592999">
      <stop
         style="stop-color:#777;"
         offset="0"
         id="stop14" />
      <stop
         offset="1"
         id="stop16" />
    </radialGradient>
    <radialGradient
       id="rad3"
       gradientUnits="userSpaceOnUse"
       cy="38.571"
       cx="24.714"
       gradientTransform="matrix(1,0,0,0.333333,0,25.7143)"
       r="19.714">
      <stop
         offset="0"
         id="stop19" />
      <stop
         style="stop-opacity:0;"
         offset="1"
         id="stop21" />
    </radialGradient>
    <radialGradient
       id="rad2-1"
       gradientUnits="userSpaceOnUse"
       cy="39.592999"
       cx="25.052999"
       gradientTransform="matrix(1.2547513,0,0,1.25,-6.5984842,-13.3721)"
       r="15.757"
       fx="25.052999"
       fy="39.592999">
      <stop
         style="stop-color:#777;"
         offset="0"
         id="stop14-8" />
      <stop
         offset="1"
         id="stop16-7" />
    </radialGradient>
    <radialGradient
       r="15.757"
       fy="39.592999"
       fx="25.052999"
       cy="39.592999"
       cx="25.052999"
       gradientTransform="matrix(1.2547513,0,0,1.25,-6.6292588,-13.408105)"
       gradientUnits="userSpaceOnUse"
       id="radialGradient3055"
       xlink:href="#rad2-1"
       inkscape:collect="always" />
  </defs>
  <path
     style="opacity:0.53164601;fill:url(#rad3);"
     d="M44.429,38.571a19.714,6.5714,0,1,1,-39.429,0,19.714,6.5714,0,1,1,39.429,0z"
     id="path23" />
  <path
     style="stroke:#9c8c0a;stroke-width:0.48;fill:url(#rad1);"
     d="M39.775,19.009a8.6621,8.6621,0,1,1,-17.324,0,8.6621,8.6621,0,1,1,17.324,0z"
     transform="matrix(2.08314,0,0,2.08314,-40.5471,-16.4922)"
     id="path25" />
  <path
     style="opacity:0.67721498;stroke:#fff;stroke-width:0.50510597;fill:none;"
     d="M39.775,19.009a8.6621,8.6621,0,1,1,-17.324,0,8.6621,8.6621,0,1,1,17.324,0z"
     transform="matrix(1.97978,0,0,1.97978,-37.3313,-14.5275)"
     id="path27" />
  <path
     style="opacity:0.36;fill:#fff;"
     d="M37.285,24.72c-3.017,5.225-6.544,8.99-12.823,8.99-6.1,0-10.565-4.34-13.352-9.167,2.549,3.056,6.283,6.567,13.087,6.567,8.131,0,9.552-2.907,13.088-6.39z"
     id="path29" />
  <path
     style="fill:url(#rad2)"
     d="m 37.285,24.013 c -3.017,5.225 -6.544,8.99 -12.823,8.99 -6.1,0 -10.565,-4.34 -13.352,-9.167 5.980001,3.452555 12.956656,3.229172 13.087,3.229172 0.951764,0 8.180317,-0.21872 13.088,-3.052172 z"
     id="path31"
     inkscape:connector-curvature="0"
     sodipodi:nodetypes="cscsc" />
  <g
     transform="translate(0.353553,2.39271)"
     id="g33">
    <path
       style="opacity:0.36;fill:#fff;"
       d="M21.398,15.321c0,2.5-1.125,4.5-2.5,4.5s-2.625-2-2.625-4.5,1.125-4.5,2.5-4.5,2.5,2,2.5,4.5h0.125z"
       id="path35" />
    <path
       style="opacity:0.36;fill:#fff;"
       d="M30.689,15.321c0,2.5-1.125,4.5-2.5,4.5s-2.5-2-2.5-4.5,1.125-4.5,2.5-4.5,2.5,2,2.5,4.5z"
       id="path37" />
    <path
       d="M21.398,14.696c0,2.5-1.125,4.5-2.5,4.5s-2.5-2-2.5-4.5,1.125-4.5,2.5-4.5,2.5,2,2.5,4.5z"
       id="path39" />
    <path
       d="M30.689,14.696c0,2.5-1.125,4.5-2.5,4.5s-2.5-2-2.5-4.5,1.125-4.5,2.5-4.5,2.5,2,2.5,4.5z"
       id="path41" />
  </g>
</svg>
