<?xml version="1.0" encoding="UTF-8" standalone="no"?>
<svg xmlns="http://www.w3.org/2000/svg" xmlns:xlink="http://www.w3.org/1999/xlink" width="48" height="48">
  <defs>
    <linearGradient id="c">
      <stop offset="0" stop-color="#ff6318" stop-opacity=".68932039"/>
      <stop offset="1" stop-opacity="0"/>
    </linearGradient>
    <linearGradient id="a">
      <stop offset="0"/>
      <stop offset="1" stop-opacity="0"/>
    </linearGradient>
    <linearGradient id="e">
      <stop offset="0" stop-color="#fffcde"/>
      <stop offset=".64485979" stop-color="#f6e76a"/>
      <stop offset="1" stop-color="#ffb738"/>
    </linearGradient>
    <linearGradient id="b">
      <stop offset="0" stop-color="#ccc"/>
      <stop offset=".34579438" stop-color="#fff"/>
      <stop offset=".72486681" stop-color="#fff"/>
      <stop offset="1" stop-color="#cecece"/>
    </linearGradient>
    <linearGradient id="d">
      <stop offset="0"/>
      <stop offset="1" stop-opacity="0"/>
    </linearGradient>
    <linearGradient xlink:href="#a" id="k" x1="14" x2="14" y1="21.0625" y2="34.305527" gradientTransform="matrix(1 0 0 1.40452 10.5 -7.966331)" gradientUnits="userSpaceOnUse"/>
    <linearGradient xlink:href="#a" id="l" x1="14" x2="13.5" y1="21.0625" y2="33.42667" gradientTransform="matrix(1 0 0 1.1719 2.5 -3.141166)" gradientUnits="userSpaceOnUse"/>
    <linearGradient xlink:href="#a" id="m" x1="14" x2="14.5" y1="21.0625" y2="33.431156" gradientTransform="matrix(1 0 0 1.15982 18.5 -2.815047)" gradientUnits="userSpaceOnUse"/>
    <linearGradient xlink:href="#b" id="j" x1="9.7892637" x2="38.390732" y1="29.629091" y2="29.629091" gradientTransform="matrix(1.0489 0 0 1 -1.267931 0)" gradientUnits="userSpaceOnUse"/>
    <linearGradient id="f">
      <stop offset="0" stop-color="#729fcf" stop-opacity=".20784314"/>
      <stop offset="1" stop-color="#729fcf" stop-opacity=".6761905"/>
    </linearGradient>
    <linearGradient id="g">
      <stop offset="0" stop-color="#fff"/>
      <stop offset="1" stop-color="#fff" stop-opacity=".24761905"/>
    </linearGradient>
    <linearGradient xlink:href="#c" id="n" x1="45.457451" x2="67.582451" y1="-8.1066365" y2="-8.1066365" gradientUnits="userSpaceOnUse"/>
    <linearGradient xlink:href="#c" id="o" x1="45.457451" x2="67.582451" y1="-8.1066365" y2="-8.1066365" gradientUnits="userSpaceOnUse"/>
    <linearGradient xlink:href="#c" id="p" x1="45.457451" x2="67.582451" y1="-8.1066365" y2="-8.1066365" gradientUnits="userSpaceOnUse"/>
    <radialGradient xlink:href="#d" id="h" cx="24.714285" cy="38.57143" r="19.714285" fx="24.714285" fy="38.57143" gradientTransform="matrix(1 0 0 .33333 0 25.71429)" gradientUnits="userSpaceOnUse"/>
    <radialGradient xlink:href="#e" id="i" cx="29.288071" cy="15.720984" r="8.9020796" fx="29.158466" fy="15.755712" gradientUnits="userSpaceOnUse"/>
    <radialGradient xlink:href="#d" id="u" cx="24.714285" cy="38.57143" r="19.714285" fx="24.714285" fy="38.57143" gradientTransform="matrix(1 0 0 .33333 0 25.71429)" gradientUnits="userSpaceOnUse"/>
    <radialGradient xlink:href="#e" id="v" cx="29.288071" cy="15.720984" r="8.9020796" fx="29.158466" fy="15.755712" gradientUnits="userSpaceOnUse"/>
    <radialGradient xlink:href="#f" id="q" cx="18.240929" cy="21.817987" r="8.3085051" fx="18.240929" fy="21.817987" gradientUnits="userSpaceOnUse"/>
    <radialGradient xlink:href="#g" id="r" cx="15.414371" cy="13.078408" r="6.65625" fx="15.414371" fy="13.078408" gradientTransform="matrix(1.91357 0 0 1.66202 36.443239 -44.429919)" gradientUnits="userSpaceOnUse"/>
    <radialGradient xlink:href="#f" id="s" cx="18.240929" cy="21.817987" r="8.3085051" fx="18.240929" fy="21.817987" gradientUnits="userSpaceOnUse"/>
    <radialGradient xlink:href="#g" id="t" cx="15.414371" cy="13.078408" r="6.65625" fx="15.414371" fy="13.078408" gradientTransform="matrix(1.91357 0 0 1.66202 11.912902 -44.429919)" gradientUnits="userSpaceOnUse"/>
  </defs>
  <path fill="url(#h)" fill-rule="evenodd" d="M44.42857 38.57143a19.714285 6.5714288 0 1 1-39.42857 0 19.714285 6.5714288 0 1 1 39.42857 0z" color="#000" opacity=".5316456" overflow="visible" style="marker:none"/>
  <path fill="url(#i)" fill-rule="evenodd" stroke="#9c8c0a" stroke-linecap="round" stroke-linejoin="round" stroke-width=".48004404" d="M39.774755 19.008621a8.6620579 8.6620579 0 1 1-17.324115 0 8.6620579 8.6620579 0 1 1 17.324115 0z" color="#000" overflow="visible" style="marker:none" transform="translate(-40.54715 -16.49224) scale(2.08314)"/>
  <path fill="none" stroke="#fff" stroke-linecap="round" stroke-linejoin="round" stroke-width=".50510627" d="M39.774755 19.008621a8.6620579 8.6620579 0 1 1-17.324115 0 8.6620579 8.6620579 0 1 1 17.324115 0z" color="#000" opacity=".67721522" overflow="visible" style="marker:none" transform="translate(-37.33128 -14.52746) scale(1.97978)"/>
  <path fill="none" stroke="#555753" d="M25.86489088 15.61666538a2.87500045 2.93750046-75.00000507 0 1 5.66672706.0301848m-14.41672706-.0301848a2.87500045 2.93750046-75.00000507 0 1 5.66672706.0301848"/>
  <path fill="url(#j)" d="M9.1875355 21.044769C7.6485541 28.612147 13.879571 38.212295 24.038687 38.212295c10.247498 0 16.505528-8.430424 14.72004-17.105026l-29.5711915-.0625z" color="#000" overflow="visible" style="marker:none"/>
  <path fill="none" stroke="url(#k)" stroke-linecap="square" stroke-width=".99999988" d="M24.5 21.528657v16.854279" opacity=".18181818"/>
  <path fill="none" stroke="url(#l)" stroke-linecap="square" stroke-width="1.0000002" d="M16.5 21.468635v14.062746" opacity=".18181818"/>
  <path fill="none" stroke="url(#m)" stroke-linecap="square" stroke-width="1.0000005" d="M32.5 21.541107v13.917802" opacity=".18181818"/>
  <path fill="none" stroke="#8f5902" stroke-width=".99999994" d="M9.4409398 20.615864C7.6602852 29.43779 14.599952 38.703673 24.250001 38.703673c10.003545 0 16.652216-9.578383 14.371562-18.150309l-29.1806232.0625z" color="#000" overflow="visible" style="marker:none"/>
  <g fill="url(#n)" fill-rule="evenodd" color="#000" transform="translate(-.151466 -.711639)">
    <path fill="url(#o)" d="M38.375 19.1875a2.375.5625 0 1 1-4.75 0 2.375.5625 0 1 1 4.75 0z" overflow="visible" style="marker:none" transform="translate(-2.875 -.625)"/>
    <path fill="url(#p)" d="M38.375 19.1875a2.375.5625 0 1 1-4.75 0 2.375.5625 0 1 1 4.75 0z" overflow="visible" style="marker:none" transform="translate(-20.25 -.625)"/>
  </g>
  <g color="#000" transform="translate(-32.233917 32)">
    <g fill="none" stroke="#414141" stroke-linecap="round" stroke-linejoin="round" transform="translate(32.457451 -29.961639)">
      <path stroke-width=".99999946" d="M21.036428 12.467883a9.5459423 9.5459423 0 1 1-19.0918842 0 9.5459423 9.5459423 0 1 1 19.0918842 0z" overflow="visible" style="marker:none"/>
      <path stroke-width=".99999946" d="M21.036428 12.467883a9.5459423 9.5459423 0 1 1-19.0918842 0 9.5459423 9.5459423 0 1 1 19.0918842 0z" overflow="visible" style="marker:none" transform="translate(24.57196)"/>
      <path stroke-width=".99999976" d="M-25.587336 4.5664673a5.9717784 5.9717784 0 0 1-4.892967 5.8735257" overflow="visible" style="marker:none" transform="rotate(-129.956)"/>
    </g>
    <path fill="url(#q)" fill-rule="evenodd" stroke="#3063a3" stroke-linecap="round" stroke-miterlimit="10" stroke-width=".968844" d="M25.897786 18.478292a8.3085051 8.3085051 0 1 1-16.61701 0 8.3085051 8.3085051 0 1 1 16.61701 0z" style="marker:none" transform="translate(50.343522 -36.576239) scale(1.03216)"/>
    <path fill="url(#r)" fill-rule="evenodd" d="M68.336563-24.993061c-3.843131 0-6.955188 3.112057-6.955188 6.95519 0 1.109914.310181 2.131139.772798 3.062574.924239.340663 1.906039.572443 2.948085.572443 4.554082 0 8.191122-3.587824 8.472164-8.071456-1.277428-1.509574-3.106953-2.518751-5.237859-2.518751z" opacity=".83422457" overflow="visible" style="marker:none"/>
    <path fill="url(#s)" fill-rule="evenodd" stroke="#3063a3" stroke-linecap="round" stroke-miterlimit="10" stroke-width=".968844" d="M25.897786 18.478292a8.3085051 8.3085051 0 1 1-16.61701 0 8.3085051 8.3085051 0 1 1 16.61701 0z" style="marker:none" transform="translate(25.813193 -36.576239) scale(1.03216)"/>
    <path fill="url(#t)" fill-rule="evenodd" d="M43.806234-24.993061c-3.843133 0-6.955189 3.112057-6.955189 6.95519 0 1.109914.310181 2.131139.772798 3.062574.924238.340663 1.90604.572443 2.948085.572443 4.554084 0 8.191123-3.587824 8.472166-8.071456-1.277428-1.509574-3.106952-2.518751-5.23786-2.518751z" opacity=".83422457" overflow="visible" style="marker:none"/>
  </g>
  <g color="#000">
    <path fill="url(#u)" fill-rule="evenodd" d="M44.42857 38.57143a19.714285 6.5714288 0 1 1-39.42857 0 19.714285 6.5714288 0 1 1 39.42857 0z" opacity=".53164559" overflow="visible" style="marker:none" transform="translate(46.690639 3.5924546)"/>
    <path fill="url(#v)" fill-rule="evenodd" stroke="#9c8c0a" stroke-linecap="round" stroke-linejoin="round" stroke-width=".48004404" d="M39.774755 19.008621a8.6620579 8.6620579 0 1 1-17.324115 0 8.6620579 8.6620579 0 1 1 17.324115 0z" overflow="visible" style="marker:none" transform="translate(6.143489 -12.899785) scale(2.08314)"/>
    <path fill="none" stroke="#fff" stroke-linecap="round" stroke-linejoin="round" stroke-width=".50510627" d="M39.774755 19.008621a8.6620579 8.6620579 0 1 1-17.324115 0 8.6620579 8.6620579 0 1 1 17.324115 0z" opacity=".67721522" overflow="visible" style="marker:none" transform="translate(9.359359 -10.935005) scale(1.97978)"/>
  </g>
  <g fill="none" stroke="#000" transform="rotate(-169.832 112.8912547 69.2080978) scale(2.4668)">
    <path d="M64.088233 39.807574c-.29378-3.180105 2.258715-3.264491 2.258715-3.264491"/>
    <path d="M66.013268 39.340833c-1.130453-2.98688-3.461461-1.943447-3.461461-1.943447"/>
  </g>
</svg>