<?xml version="1.0" encoding="UTF-8" standalone="no"?>
<svg
   xmlns:dc="http://purl.org/dc/elements/1.1/"
   xmlns:cc="http://creativecommons.org/ns#"
   xmlns:rdf="http://www.w3.org/1999/02/22-rdf-syntax-ns#"
   xmlns:svg="http://www.w3.org/2000/svg"
   xmlns="http://www.w3.org/2000/svg"
   xmlns:xlink="http://www.w3.org/1999/xlink"
   xmlns:sodipodi="http://sodipodi.sourceforge.net/DTD/sodipodi-0.dtd"
   xmlns:inkscape="http://www.inkscape.org/namespaces/inkscape"
   viewBox="0 0 48 48"
   id="svg2"
   version="1.1"
   inkscape:version="0.48.2 r9819"
   width="100%"
   height="100%"
   sodipodi:docname="smile-big.svg">
  <metadata
     id="metadata45">
    <rdf:RDF>
      <cc:Work
         rdf:about="">
        <dc:format>image/svg+xml</dc:format>
        <dc:type
           rdf:resource="http://purl.org/dc/dcmitype/StillImage" />
        <dc:title></dc:title>
      </cc:Work>
    </rdf:RDF>
  </metadata>
  <sodipodi:namedview
     pagecolor="#ffffff"
     bordercolor="#666666"
     borderopacity="1"
     objecttolerance="10"
     gridtolerance="10"
     guidetolerance="10"
     inkscape:pageopacity="0"
     inkscape:pageshadow="2"
     inkscape:window-width="1022"
     inkscape:window-height="747"
     id="namedview43"
     showgrid="false"
     inkscape:zoom="9.8971334"
     inkscape:cx="41.571758"
     inkscape:cy="19.420001"
     inkscape:window-x="0"
     inkscape:window-y="19"
     inkscape:window-maximized="0"
     inkscape:current-layer="svg2" />
  <defs
     id="defs4">
    <linearGradient
       id="linearGradient5491">
      <stop
         style="stop-color:#ffffff;stop-opacity:1;"
         offset="0"
         id="stop5493" />
      <stop
         style="stop-color:#dddbe1;stop-opacity:1;"
         offset="1"
         id="stop5495" />
    </linearGradient>
    <radialGradient
       id="rad1"
       fx="29.158"
       fy="15.756"
       gradientUnits="userSpaceOnUse"
       cy="15.721"
       cx="29.288"
       r="8.9021">
      <stop
         style="stop-color:#fffcde;"
         offset="0"
         id="stop7" />
      <stop
         style="stop-color:#f6e76a;"
         offset="0.64486"
         id="stop9" />
      <stop
         style="stop-color:#ffb738;"
         offset="1"
         id="stop11" />
    </radialGradient>
    <radialGradient
       id="rad2"
       gradientUnits="userSpaceOnUse"
       cy="39.592999"
       cx="25.052999"
       gradientTransform="matrix(1.2547513,0,0,1.25,-6.5984842,-13.3721)"
       r="15.757"
       fx="25.052999"
       fy="39.592999">
      <stop
         style="stop-color:#777;"
         offset="0"
         id="stop14" />
      <stop
         offset="1"
         id="stop16" />
    </radialGradient>
    <radialGradient
       id="rad3"
       gradientUnits="userSpaceOnUse"
       cy="38.571"
       cx="24.714"
       gradientTransform="matrix(1,0,0,0.333333,0,25.7143)"
       r="19.714">
      <stop
         offset="0"
         id="stop19" />
      <stop
         style="stop-opacity:0;"
         offset="1"
         id="stop21" />
    </radialGradient>
    <radialGradient
       id="rad2-1"
       gradientUnits="userSpaceOnUse"
       cy="39.592999"
       cx="25.052999"
       gradientTransform="matrix(1.2547513,0,0,1.25,-6.5984842,-13.3721)"
       r="15.757"
       fx="25.052999"
       fy="39.592999">
      <stop
         style="stop-color:#777;"
         offset="0"
         id="stop14-8" />
      <stop
         offset="1"
         id="stop16-7" />
    </radialGradient>
    <radialGradient
       r="15.757"
       fy="39.592999"
       fx="25.052999"
       cy="39.592999"
       cx="25.052999"
       gradientTransform="matrix(1.2547513,0,0,1.25,-6.5281428,-13.408105)"
       gradientUnits="userSpaceOnUse"
       id="radialGradient3055"
       xlink:href="#rad2-1"
       inkscape:collect="always" />
    <radialGradient
       inkscape:collect="always"
       xlink:href="#rad2-1"
       id="radialGradient5385"
       gradientUnits="userSpaceOnUse"
       gradientTransform="matrix(1.2547513,0,0,1.25,-6.5281428,-13.408105)"
       cx="25.052999"
       cy="39.592999"
       fx="25.052999"
       fy="39.592999"
       r="15.757" />
    <radialGradient
       id="rad2-4"
       gradientUnits="userSpaceOnUse"
       cy="39.592999"
       cx="25.052999"
       gradientTransform="matrix(1.2547513,0,0,1.25,-6.5984842,-13.3721)"
       r="15.757"
       fx="25.052999"
       fy="39.592999">
      <stop
         style="stop-color:#777;"
         offset="0"
         id="stop14-4" />
      <stop
         offset="1"
         id="stop16-5" />
    </radialGradient>
    <radialGradient
       r="15.757"
       fy="39.592999"
       fx="25.052999"
       cy="39.592999"
       cx="25.052999"
       gradientTransform="matrix(1.2547513,0,0,1.25,-6.7005988,-13.313324)"
       gradientUnits="userSpaceOnUse"
       id="radialGradient5406"
       xlink:href="#rad2-4"
       inkscape:collect="always" />
    <radialGradient
       inkscape:collect="always"
       xlink:href="#rad2-4"
       id="radialGradient5424"
       gradientUnits="userSpaceOnUse"
       gradientTransform="matrix(1.2547513,0,0,1.25,-6.6401283,-13.40403)"
       cx="25.052999"
       cy="39.592999"
       fx="25.052999"
       fy="39.592999"
       r="15.757" />
    <radialGradient
       inkscape:collect="always"
       xlink:href="#linearGradient5491"
       id="radialGradient5497"
       cx="22.898319"
       cy="29.355158"
       fx="22.898319"
       fy="29.355158"
       r="1.828125"
       gradientTransform="matrix(0.85001952,1.0747373,-0.76422545,0.60442937,25.86826,-13.017965)"
       gradientUnits="userSpaceOnUse" />
    <radialGradient
       inkscape:collect="always"
       xlink:href="#linearGradient5491"
       id="radialGradient5505"
       cx="25.416777"
       cy="29.465969"
       fx="25.416777"
       fy="29.465969"
       r="1.828125"
       gradientTransform="matrix(0.7816277,-1.2994554,0.83495136,0.50222667,-19.052331,47.671373)"
       gradientUnits="userSpaceOnUse" />
  </defs>
  <path
     style="opacity:0.53164601;fill:url(#rad3);"
     d="M44.429,38.571a19.714,6.5714,0,1,1,-39.429,0,19.714,6.5714,0,1,1,39.429,0z"
     id="path23" />
  <path
     style="stroke:#9c8c0a;stroke-width:0.48;fill:url(#rad1);"
     d="M39.775,19.009a8.6621,8.6621,0,1,1,-17.324,0,8.6621,8.6621,0,1,1,17.324,0z"
     transform="matrix(2.08314,0,0,2.08314,-40.5471,-16.4922)"
     id="path25" />
  <path
     style="opacity:0.67721498;stroke:#fff;stroke-width:0.50510597;fill:none;"
     d="M39.775,19.009a8.6621,8.6621,0,1,1,-17.324,0,8.6621,8.6621,0,1,1,17.324,0z"
     transform="matrix(1.97978,0,0,1.97978,-37.3313,-14.5275)"
     id="path27" />
  <path
     style="opacity:0.36;fill:#fff;"
     d="M37.285,24.72c-3.017,5.225-6.544,8.99-12.823,8.99-6.1,0-10.565-4.34-13.352-9.167,2.549,3.056,6.283,6.567,13.087,6.567,8.131,0,9.552-2.907,13.088-6.39z"
     id="path29" />
  <path
     style="fill:url(#rad2)"
     d="m 37.285,24.013 c -3.017,5.225 -6.544,8.99 -12.823,8.99 -6.1,0 -10.565,-4.34 -13.352,-9.167 5.980001,3.452555 12.956656,3.229172 13.087,3.229172 0.951764,0 8.180317,-0.21872 13.088,-3.052172 z"
     id="path31"
     inkscape:connector-curvature="0"
     sodipodi:nodetypes="cscsc" />
  <g
     transform="translate(0.353553,2.39271)"
     id="g33">
    <path
       style="opacity:0.36;fill:#fff;"
       d="M21.398,15.321c0,2.5-1.125,4.5-2.5,4.5s-2.625-2-2.625-4.5,1.125-4.5,2.5-4.5,2.5,2,2.5,4.5h0.125z"
       id="path35" />
    <path
       style="opacity:0.36;fill:#fff;"
       d="M30.689,15.321c0,2.5-1.125,4.5-2.5,4.5s-2.5-2-2.5-4.5,1.125-4.5,2.5-4.5,2.5,2,2.5,4.5z"
       id="path37" />
    <path
       d="M21.398,14.696c0,2.5-1.125,4.5-2.5,4.5s-2.5-2-2.5-4.5,1.125-4.5,2.5-4.5,2.5,2,2.5,4.5z"
       id="path39" />
    <path
       d="M30.689,14.696c0,2.5-1.125,4.5-2.5,4.5s-2.5-2-2.5-4.5,1.125-4.5,2.5-4.5,2.5,2,2.5,4.5z"
       id="path41" />
  </g>
  <path
     style="fill:url(#radialGradient5505);fill-opacity:1"
     d="M 28.03125 26.75 C 26.185382 26.980916 24.818416 27.028763 24.375 27.03125 L 24.375 29.3125 C 24.375 29.866302 24.821198 30.3125 25.375 30.3125 L 27.03125 30.3125 C 27.585052 30.3125 28.03125 29.866302 28.03125 29.3125 L 28.03125 26.75 z "
     id="path31-9" />
  <rect
     style="fill:none;stroke:none"
     id="rect5331"
     width="3.0334802"
     height="3.6401763"
     x="21.638826"
     y="26.765638" />
  <rect
     style="fill:none;stroke:none"
     id="rect5333"
     width="0.91004407"
     height="0.60669607"
     x="22.144405"
     y="28.080147" />
  <rect
     style="fill:none;stroke:none"
     id="rect5335"
     width="2.5279002"
     height="2.9323642"
     x="20.829897"
     y="26.563406" />
  <rect
     style="fill:none;stroke:none"
     id="rect5337"
     width="3.7412922"
     height="3.9435244"
     x="38.5252"
     y="18.069662" />
  <rect
     style="fill:none;stroke:none"
     id="rect5339"
     width="5.9658446"
     height="3.5390604"
     x="38.120735"
     y="4.3178849" />
  <rect
     style="fill:none;stroke:none"
     id="rect5341"
     width="2.3256674"
     height="2.8312483"
     x="39.233009"
     y="2.1944489" />
  <path
     style="fill:url(#radialGradient5497);fill-opacity:1;stroke:none"
     d="M 20.40625 26.78125 L 20.40625 29.34375 C 20.40625 29.897552 20.852448 30.34375 21.40625 30.34375 L 23.0625 30.34375 C 23.616302 30.34375 24.0625 29.897552 24.0625 29.34375 L 24.0625 27.03125 C 23.894198 27.034318 22.486691 27.048352 20.40625 26.78125 z "
     id="rect5345" />
</svg>
