<?xml version="1.0" encoding="UTF-8" standalone="no"?><svg xmlns="http://www.w3.org/2000/svg" xmlns:xlink="http://www.w3.org/1999/xlink" width="48" height="48" version="1.0"><defs><linearGradient id="i"><stop offset="0"/><stop offset="1" stop-opacity="0"/></linearGradient><linearGradient id="f"><stop offset="0" stop-color="#fff"/><stop offset="1" stop-color="#f8f8f8"/></linearGradient><linearGradient id="d"><stop offset="0" stop-color="#a3a3a3"/><stop offset="1" stop-color="#4c4c4c"/></linearGradient><linearGradient id="e"><stop offset="0" stop-color="#fafafa"/><stop offset="1" stop-color="#bbb"/></linearGradient><linearGradient id="j"><stop offset="0"/><stop offset="1" stop-opacity="0"/></linearGradient><linearGradient id="a"><stop offset="0" stop-color="#ffd1d1"/><stop offset=".5" stop-color="#ff1d1d"/><stop offset="1" stop-color="#6f0000"/></linearGradient><linearGradient id="b"><stop offset="0" stop-color="#c1c1c1"/><stop offset="1" stop-color="#acacac"/></linearGradient><linearGradient id="k"><stop offset="0" stop-color="#e7e2b8"/><stop offset="1" stop-color="#e7e2b8" stop-opacity="0"/></linearGradient><linearGradient id="c"><stop offset="0"/><stop offset="1" stop-color="#c9c9c9"/></linearGradient><linearGradient xlink:href="#a" id="s" x1="48.90625" x2="50.988335" y1="17.376184" y2="22.250591" gradientTransform="translate(-5.669292)" gradientUnits="userSpaceOnUse"/><linearGradient xlink:href="#b" id="t" x1="46" x2="47.6875" y1="19.8125" y2="22.625" gradientTransform="translate(-5.669292)" gradientUnits="userSpaceOnUse"/><linearGradient xlink:href="#c" id="v" x1="25.71875" x2="25.514589" y1="31.046875" y2="30.703125" gradientTransform="translate(-5.825542 .125)" gradientUnits="userSpaceOnUse"/><radialGradient id="h" cx="20.892099" cy="64.567902" r="5.257" fx="20.892099" fy="64.567902" gradientUnits="userSpaceOnUse"><stop offset="0" stop-color="#f0f0f0"/><stop offset="1" stop-color="#9a9a9a"/></radialGradient><radialGradient id="g" cx="20.892099" cy="114.5684" r="5.256" fx="20.892099" fy="114.5684" gradientUnits="userSpaceOnUse"><stop offset="0" stop-color="#f0f0f0"/><stop offset="1" stop-color="#9a9a9a"/></radialGradient><radialGradient xlink:href="#d" id="n" cx="8.824419" cy="3.7561285" r="37.751713" fx="8.824419" fy="3.7561285" gradientTransform="matrix(.96827 0 0 1.03277 3.353553 .646447)" gradientUnits="userSpaceOnUse"/><radialGradient xlink:href="#e" id="m" cx="33.966679" cy="35.736916" r="86.70845" fx="33.966679" fy="35.736916" gradientTransform="scale(.9605 1.04113)" gradientUnits="userSpaceOnUse"/><radialGradient xlink:href="#f" id="o" cx="8.1435566" cy="7.2678967" r="38.158695" fx="8.1435566" fy="7.2678967" gradientTransform="matrix(.96827 0 0 1.03277 3.353553 .646447)" gradientUnits="userSpaceOnUse"/><radialGradient xlink:href="#g" id="p" cx="20.892099" cy="114.5684" r="5.256" fx="20.892099" fy="114.5684" gradientTransform="translate(4.613529 3.979808) scale(.2297)" gradientUnits="userSpaceOnUse"/><radialGradient xlink:href="#h" id="q" cx="20.892099" cy="64.567902" r="5.257" fx="20.892099" fy="64.567902" gradientTransform="translate(4.613529 3.979808) scale(.2297)" gradientUnits="userSpaceOnUse"/><radialGradient xlink:href="#i" id="l" cx="24.306795" cy="42.07798" r="15.821514" fx="24.306795" fy="42.07798" gradientTransform="matrix(1 0 0 .28492 0 30.08928)" gradientUnits="userSpaceOnUse"/><radialGradient xlink:href="#j" id="r" cx="20.525417" cy="40.437481" r="19.5625" fx="20.525417" fy="40.437481" gradientTransform="matrix(1 0 0 .34824 0 26.35543)" gradientUnits="userSpaceOnUse"/><radialGradient xlink:href="#k" id="u" cx="29.053354" cy="27.640751" r="3.2408545" fx="29.053354" fy="27.640751" gradientTransform="matrix(2.92356 0 0 2.02972 -61.55532 -27.88417)" gradientUnits="userSpaceOnUse"/></defs><path fill="url(#l)" d="M40.128309 42.07798a15.821514 4.5078058 0 1 1-31.643028 0 15.821514 4.5078058 0 1 1 31.643028 0z" opacity=".7836257" transform="translate(0 .707108)"/><path fill="none" stroke="#000" stroke-opacity=".01754384" d="M11.505723 5.4942766V43.400869"/><rect width="34.875" height="40.920494" x="6.6035528" y="3.6464462" fill="url(#m)" stroke="url(#n)" stroke-linecap="round" stroke-linejoin="round" display="block" overflow="visible" rx="1.1449448" ry="1.1468204" style="marker:none" transform="matrix(1.00358 0 0 1.00194 -.12722 -.153534)"/><rect width="32.775887" height="38.946384" x="7.6660538" y="4.5839462" fill="none" stroke="url(#o)" stroke-linecap="round" stroke-linejoin="round" display="block" overflow="visible" rx=".14851625" ry=".14875954" style="marker:none" transform="matrix(1.00358 0 0 1.00194 -.12722 -.153534)"/><g transform="translate(.646447 -.03798933)"><path fill="#fff" d="M10.3484926 30.217151c0 .4531981-.36752.8204884-.8207181.8204884-.4534278 0-.8207181-.36752-.8207181-.8204884 0-.4534278.36752-.8207181.8207181-.8207181s.8207181.36752.8207181.8207181zm0-11.485c0 .4531981-.36752.8207181-.8207181.8207181-.4534278 0-.8207181-.36752-.8207181-.8207181 0-.4534278.36752-.8207181.8207181-.8207181s.8207181.36752.8207181.8207181z"/><path fill="url(#p)" d="M9.9950109 29.952326c0 .453204-.3675248.820499-.8207288.820499-.4534338 0-.8207289-.367524-.8207289-.820499 0-.453434.3675248-.820729.8207289-.820729.453204 0 .8207288.367525.8207288.820729z"/><path fill="url(#q)" d="M9.9950109 18.467176c0 .453204-.3675248.820729-.8207288.820729-.4534338 0-.8207289-.367525-.8207289-.820729 0-.453434.3675248-.820729.8207289-.820729.453204 0 .8207288.367525.8207288.820729z"/></g><path fill="none" stroke="#fff" stroke-opacity=".2" d="M12.5 5.0205154V43.038228"/><g fill="#9b9b9b" fill-opacity=".54970757" transform="matrix(.9091 0 0 1 2.363628 0)"><rect width="22.000004" height="1" x="15.000002" y="9" rx=".15156493" ry=".06539088"/><rect width="22.000004" height="1" x="15.000002" y="11" rx=".15156493" ry=".06539088"/><rect width="22.000004" height="1" x="15.000002" y="13" rx=".15156493" ry=".06539088"/><rect width="22.000004" height="1" x="15.000002" y="15" rx=".15156493" ry=".06539088"/><rect width="22.000004" height="1" x="15.000002" y="17" rx=".15156493" ry=".06539088"/><rect width="22.000004" height="1" x="15.000002" y="19" rx=".15156493" ry=".06539088"/><rect width="22.000004" height="1" x="15.000002" y="21" rx=".15156493" ry=".06539088"/><rect width="22.000004" height="1" x="15.000002" y="23" rx=".15156493" ry=".06539088"/><rect width="9.9000053" height="1" x="14.999992" y="25" rx=".06820424" ry=".06539088"/><rect width="22.000004" height="1" x="14.999992" y="29" rx=".15156493" ry=".06539088"/><rect width="22.000004" height="1" x="14.999992" y="31" rx=".15156493" ry=".06539088"/><rect width="22.000004" height="1" x="14.999992" y="33" rx=".15156493" ry=".06539088"/><rect width="22.000004" height="1" x="14.999992" y="35" rx=".15156493" ry=".06539088"/><rect width="15.400014" height="1" x="14.999992" y="37" rx=".10609552" ry=".06539088"/></g><path fill="url(#r)" d="M43.125 40.4375a19.5625 6.8125 0 1 1-39.125 0 19.5625 6.8125 0 1 1 39.125 0z" opacity=".2" transform="matrix(.75668 0 0 .29358 12.177896 29.12848)"/><g transform="matrix(1.0337 -.27698 .27698 1.0337 16.06828 -14.54823)"><path fill="#cb9022" fill-rule="evenodd" stroke="#5c410c" d="m17.34116 32.5 5.625-5.625 20.093749-9.75c3.25-1.25 5.1875 3.375 2.3125 5L25.34116 31.5l-8 1z" overflow="visible" style="marker:none" transform="translate(-29.75546 19)"/><path fill="url(#s)" d="M38.330708 20s1.4375.09375 2 1.34375c.579493 1.287761 0 2.65625 0 2.65625l5.03125-2.46875s1.452032-.881367.65625-2.84375c-.784912-1.935577-2.6875-1.15625-2.6875-1.15625l-5 2.46875z" transform="translate(-29.75546 19)"/><path fill="url(#t)" d="M38.330708 20s1.4375.09375 2 1.34375c.579493 1.287761 0 2.65625 0 2.65625l2-1s.827032-1.318867.21875-2.6875c-.625-1.40625-2.21875-1.3125-2.21875-1.3125l-2 1z" transform="translate(-29.75546 19)"/><path fill="url(#u)" d="m18.768208 31.78125 4.5-4.5c1.5.8125 2.28125 2.15625 1.875 3.71875l-6.375.78125z" transform="translate(-29.75546 19)"/><path fill="url(#v)" d="m20.111958 30.375-1.625 1.59375 2.34375-.3125c.21875-.71875-.1875-1.0625-.71875-1.28125z" transform="translate(-29.75546 19)"/><path fill="#fff" fill-opacity=".36363639" d="m-6.487252 46.25 1.5625 1.25 15.38734-7.31867c-.444432-.856044-1.241767-1.084597-1.903379-1.162262L-6.487252 46.25z"/><path fill-opacity=".36363639" d="m-4.612252 50.0625.1875-.75 15.23109-7.1296s-.11016.613627-.215879.74935L-4.612252 50.0625z"/></g></svg>