<?xml version="1.0" encoding="UTF-8" standalone="no"?>
<svg xmlns="http://www.w3.org/2000/svg" xmlns:xlink="http://www.w3.org/1999/xlink" width="48" height="48">
  <defs>
    <radialGradient xlink:href="#a" id="c" cx="23.857143" cy="40" r="17.142857" fx="23.857143" fy="40" gradientTransform="matrix(1 0 0 .5 0 20)" gradientUnits="userSpaceOnUse"/>
    <radialGradient xlink:href="#b" id="d" cx="20.935379" cy="12.592707" r="19.967958" fx="20.935379" fy="12.592707" gradientTransform="matrix(-1.26287 .02797 -.03607 -1.62966 47.36662 36.49787)" gradientUnits="userSpaceOnUse"/>
    <linearGradient id="b">
      <stop offset="0" stop-color="#ef2929"/>
      <stop offset="1" stop-color="#c00"/>
    </linearGradient>
    <linearGradient id="a">
      <stop offset="0"/>
      <stop offset="1" stop-opacity="0"/>
    </linearGradient>
  </defs>
  <path fill="url(#c)" d="M41 40a17.142857 8.5714283 0 1 1-34.2857132 0A17.142857 8.5714283 0 1 1 41 40z" color="#000" display="block" opacity=".52688169" overflow="visible" style="marker:none" transform="matrix(1.225 0 0 .40833 -5.221224 25.17622)"/>
  <path fill="url(#d)" stroke="#a40000" stroke-linecap="round" stroke-width=".99999982" d="M24.035816 3.5720836c-10.746242 0-19.467959 8.7220624-19.467958 19.4687504 0 10.746687 8.721717 19.468749 19.467958 19.46875 10.746242 0 19.46796-8.722064 19.467959-19.46875 0-10.746687-8.721717-19.4687504-19.467959-19.4687504zm-.031299 4.90625c8.045375 0 14.58532 6.5126504 14.58532 14.5312504 0 2.972284-.931864 5.72779-2.472619 8.03125l-20.156535-20.125c2.311997-1.5344404 5.06187-2.4375004 8.043834-2.4375004zM12.267404 14.447084l20.313031 20.28125c-2.413751 1.762493-5.358897 2.8125-8.575918 2.8125-8.045376 0-14.585319-6.51265-14.585319-14.53125 0-3.206314 1.078763-6.157843 2.848206-8.5625z"/>
  <path fill="none" stroke="#fff" stroke-linecap="round" stroke-width=".986826" d="M46.714287 27.214285a18.357143 18.142857 0 1 1-36.714287 0 18.357143 18.142857 0 1 1 36.714287 0z" opacity=".55376345" transform="matrix(1.00758 0 0 1.01916 -4.568194 -4.726048)"/>
  <path fill="none" stroke="#fff" stroke-linecap="round" d="m15.075203 11.366727 20.571429 20.571429" opacity=".47849461"/>
  <path fill="#fff" fill-rule="evenodd" d="M4.432346 19.795298c.023809 2.190476 5.4047617.666667 5.4285707 1.857143-.047619-1.809524 1.9761913-5.690476 2.4285723-6.5l8.642857 8.357143c-.047618-1.738095 6.190477-.119047 6.07143-2L16.718061 10.866727c1.52381-.785714 5.119048-2.0714294 7.357143-1.9285724 8.238095.214286 13.97619 7.8571434 14 13.0714294l-.571429 5c-.119048 1.857143 5.833333-.214286 5.642857 1.285714.404762-1.142857.880952-3.5.785714-6.214285-.047619-9.642858-8.166667-18.7142864-19.928571-18.9285724-8.583334.130953-15.505953 5.029762-17.875001 11.5089294-.135473.03346-1.470238 2.181547-1.696428 5.133928z" opacity=".30645159"/>
</svg>