<?xml version="1.0" encoding="UTF-8" standalone="no"?>
<svg xmlns="http://www.w3.org/2000/svg" xmlns:xlink="http://www.w3.org/1999/xlink" width="48" height="48">
  <defs>
    <linearGradient id="b">
      <stop offset="0"/>
      <stop offset="1" stop-opacity="0"/>
    </linearGradient>
    <linearGradient id="a">
      <stop offset="0" stop-opacity="0"/>
      <stop offset=".5"/>
      <stop offset="1" stop-opacity="0"/>
    </linearGradient>
    <linearGradient xlink:href="#a" id="d" x1="302.85715" x2="302.85715" y1="366.64789" y2="609.50507" gradientTransform="matrix(2.77439 0 0 1.9697 -1892.179 -872.8854)" gradientUnits="userSpaceOnUse"/>
    <linearGradient id="c">
      <stop offset="0" stop-color="#9cbcde"/>
      <stop offset="1" stop-color="#204a87"/>
    </linearGradient>
    <radialGradient xlink:href="#b" id="f" cx="605.71429" cy="486.64789" r="117.14286" fx="605.71429" fy="486.64789" gradientTransform="matrix(-2.77439 0 0 1.9697 112.7623 -872.8854)" gradientUnits="userSpaceOnUse"/>
    <radialGradient xlink:href="#b" id="e" cx="605.71429" cy="486.64789" r="117.14286" fx="605.71429" fy="486.64789" gradientTransform="matrix(2.77439 0 0 1.9697 -1891.633 -872.8854)" gradientUnits="userSpaceOnUse"/>
    <radialGradient xlink:href="#c" id="g" cx="25.457863" cy="35.596233" r="20.530962" fx="25.457863" fy="35.596233" gradientTransform="matrix(2.12819 0 0 2.12825 -28.51906 -40.41779)" gradientUnits="userSpaceOnUse"/>
  </defs>
  <g transform="matrix(.02299 0 0 .02345 45.8408 39.64914)">
    <path fill="url(#d)" d="M-1559.2523-150.69685h1339.6335v478.35718h-1339.6335z" color="#000" opacity=".40206185" overflow="visible" style="marker:none"/>
    <path fill="url(#e)" d="M-219.61876-150.68038v478.33079c142.874166.90045 345.40022-107.16966 345.40014-239.196175 0-132.026537-159.436816-239.134595-345.40014-239.134615z" color="#000" opacity=".40206185" overflow="visible" style="marker:none"/>
    <path fill="url(#f)" d="M-1559.2523-150.68038v478.33079c-142.8742.90045-345.4002-107.16966-345.4002-239.196175 0-132.026537 159.4368-239.134595 345.4002-239.134615z" color="#000" opacity=".40206185" overflow="visible" style="marker:none"/>
  </g>
  <rect width="40.061924" height="40.061924" x="4.9147282" y="3.0233452" fill="url(#g)" fill-rule="evenodd" stroke="#3465a4" stroke-linejoin="bevel" stroke-miterlimit="10" color="#000" overflow="visible" rx="5.454824" ry="5.454824" style="marker:none"/>
  <rect width="37.100636" height="37.100636" x="6.3954034" y="4.5040197" fill="none" stroke="#fff" stroke-linejoin="bevel" stroke-miterlimit="10" stroke-width="2.00000215" color="#000" overflow="visible" rx="3.9067502" ry="3.9067502" style="marker:none"/>
  <path fill="#fff" fill-rule="evenodd" stroke="#fff" d="M12 16c-1.9375.125-2 2-2 2v10s0 2 2 2h10s1-4 3-4c1.875 0 3 4 3 4h10s2 0 2-2V18s-.1875-2-2-2H12z"/>
  <path fill="red" fill-rule="evenodd" d="M12 18v9h9l2-2.7V18H12"/>
  <path fill="#00fa9a" fill-rule="evenodd" d="M38 18v9h-9l-2-2.7V18h11"/>
</svg>