<?xml version="1.0" encoding="UTF-8" standalone="no"?><svg xmlns="http://www.w3.org/2000/svg" xmlns:xlink="http://www.w3.org/1999/xlink" width="48" height="48" version="1.0"><defs><linearGradient id="l"><stop offset="0"/><stop offset="1" stop-opacity="0"/></linearGradient><linearGradient id="i"><stop offset="0" stop-color="#fff"/><stop offset="1" stop-color="#f8f8f8"/></linearGradient><linearGradient id="g"><stop offset="0" stop-color="#a3a3a3"/><stop offset="1" stop-color="#4c4c4c"/></linearGradient><linearGradient id="h"><stop offset="0" stop-color="#fafafa"/><stop offset="1" stop-color="#bbb"/></linearGradient><linearGradient id="m"><stop offset="0"/><stop offset="1" stop-opacity="0"/></linearGradient><linearGradient id="a"><stop offset="0" stop-color="#ffd1d1"/><stop offset=".5" stop-color="#ff1d1d"/><stop offset="1" stop-color="#6f0000"/></linearGradient><linearGradient id="b"><stop offset="0" stop-color="#c1c1c1"/><stop offset="1" stop-color="#acacac"/></linearGradient><linearGradient id="n"><stop offset="0" stop-color="#e7e2b8"/><stop offset="1" stop-color="#e7e2b8" stop-opacity="0"/></linearGradient><linearGradient id="c"><stop offset="0"/><stop offset="1" stop-color="#c9c9c9"/></linearGradient><linearGradient xlink:href="#a" id="x" x1="48.90625" x2="50.988335" y1="17.376184" y2="22.250591" gradientTransform="translate(-5.669292)" gradientUnits="userSpaceOnUse"/><linearGradient xlink:href="#b" id="y" x1="46" x2="47.6875" y1="19.8125" y2="22.625" gradientTransform="translate(-5.669292)" gradientUnits="userSpaceOnUse"/><linearGradient xlink:href="#c" id="A" x1="25.71875" x2="25.514589" y1="31.046875" y2="30.703125" gradientTransform="translate(-5.825542 .125)" gradientUnits="userSpaceOnUse"/><linearGradient id="o"><stop offset="0"/><stop offset="1" stop-opacity="0"/></linearGradient><linearGradient xlink:href="#d" id="C" x1="8.9156475" x2="9.8855038" y1="37.197018" y2="52.090679" gradientTransform="matrix(1.90964 0 0 .59278 26.32752 1.1687366)" gradientUnits="userSpaceOnUse"/><linearGradient id="d"><stop offset="0" stop-color="#9aa29a"/><stop offset="1" stop-color="#b5beb5"/></linearGradient><linearGradient id="p"><stop offset="0" stop-color="#fffffd"/><stop offset="1" stop-color="#cbcbc9"/></linearGradient><linearGradient id="f"><stop offset="0" stop-color="#a0a0a0"/><stop offset="1" stop-color="#fff"/></linearGradient><linearGradient id="e"><stop offset="0" stop-color="#838383"/><stop offset="1"/></linearGradient><linearGradient xlink:href="#e" id="I" x1="8.0876923" x2="14.409305" y1="3.3621745" y2="12.372997" gradientUnits="userSpaceOnUse"/><linearGradient xlink:href="#e" id="H" x1="17.987192" x2="24.308804" y1="3.3621745" y2="12.372997" gradientUnits="userSpaceOnUse"/><linearGradient xlink:href="#e" id="G" x1="13.037439" x2="19.359053" y1="-1.5875777" y2="7.423245" gradientUnits="userSpaceOnUse"/><linearGradient xlink:href="#e" id="F" x1="13.037439" x2="19.359053" y1="8.3119221" y2="17.322744" gradientUnits="userSpaceOnUse"/><linearGradient xlink:href="#f" id="E" x1="6.342216" x2="22.218424" y1="7.7893324" y2="25.884274" gradientUnits="userSpaceOnUse"/><radialGradient id="k" cx="20.892099" cy="64.567902" r="5.257" fx="20.892099" fy="64.567902" gradientUnits="userSpaceOnUse"><stop offset="0" stop-color="#f0f0f0"/><stop offset="1" stop-color="#9a9a9a"/></radialGradient><radialGradient id="j" cx="20.892099" cy="114.5684" r="5.256" fx="20.892099" fy="114.5684" gradientUnits="userSpaceOnUse"><stop offset="0" stop-color="#f0f0f0"/><stop offset="1" stop-color="#9a9a9a"/></radialGradient><radialGradient xlink:href="#g" id="s" cx="8.824419" cy="3.7561285" r="37.751713" fx="8.824419" fy="3.7561285" gradientTransform="matrix(.96827 0 0 1.03277 3.353553 .646447)" gradientUnits="userSpaceOnUse"/><radialGradient xlink:href="#h" id="r" cx="33.966679" cy="35.736916" r="86.70845" fx="33.966679" fy="35.736916" gradientTransform="scale(.9605 1.04113)" gradientUnits="userSpaceOnUse"/><radialGradient xlink:href="#i" id="t" cx="8.1435566" cy="7.2678967" r="38.158695" fx="8.1435566" fy="7.2678967" gradientTransform="matrix(.96827 0 0 1.03277 3.353553 .646447)" gradientUnits="userSpaceOnUse"/><radialGradient xlink:href="#j" id="u" cx="20.892099" cy="114.5684" r="5.256" fx="20.892099" fy="114.5684" gradientTransform="translate(4.613529 3.979808) scale(.2297)" gradientUnits="userSpaceOnUse"/><radialGradient xlink:href="#k" id="v" cx="20.892099" cy="64.567902" r="5.257" fx="20.892099" fy="64.567902" gradientTransform="translate(4.613529 3.979808) scale(.2297)" gradientUnits="userSpaceOnUse"/><radialGradient xlink:href="#l" id="q" cx="24.306795" cy="42.07798" r="15.821514" fx="24.306795" fy="42.07798" gradientTransform="matrix(1 0 0 .28492 0 30.08928)" gradientUnits="userSpaceOnUse"/><radialGradient xlink:href="#m" id="w" cx="20.525417" cy="40.437481" r="19.5625" fx="20.525417" fy="40.437481" gradientTransform="matrix(1 0 0 .34824 0 26.35543)" gradientUnits="userSpaceOnUse"/><radialGradient xlink:href="#n" id="z" cx="29.053354" cy="27.640751" r="3.2408545" fx="29.053354" fy="27.640751" gradientTransform="matrix(2.92356 0 0 2.02972 -61.55532 -27.88417)" gradientUnits="userSpaceOnUse"/><radialGradient xlink:href="#o" id="B" cx="23.75" cy="31" r="11.5" fx="23.75" fy="31" gradientUnits="userSpaceOnUse"/><radialGradient xlink:href="#p" id="D" cx="11.901996" cy="10.045444" r="29.292715" fx="11.901996" fy="10.045444" gradientUnits="userSpaceOnUse"/></defs><path fill="url(#q)" d="M40.128309 42.07798a15.821514 4.5078058 0 1 1-31.643028 0 15.821514 4.5078058 0 1 1 31.643028 0z" opacity=".7836257" transform="translate(0 .707108)"/><path fill="none" stroke="#000" stroke-opacity=".01754384" d="M11.505723 5.4942766V43.400869"/><rect width="34.875" height="40.920494" x="6.6035528" y="3.6464462" fill="url(#r)" stroke="url(#s)" stroke-linecap="round" stroke-linejoin="round" display="block" overflow="visible" rx="1.1449448" ry="1.1468204" style="marker:none" transform="matrix(1.00358 0 0 1.00194 -.12722 -.153534)"/><rect width="32.775887" height="38.946384" x="7.6660538" y="4.5839462" fill="none" stroke="url(#t)" stroke-linecap="round" stroke-linejoin="round" display="block" overflow="visible" rx=".14851625" ry=".14875954" style="marker:none" transform="matrix(1.00358 0 0 1.00194 -.12722 -.153534)"/><g transform="translate(.646447 -.03798933)"><path fill="#fff" d="M10.3484926 30.217151c0 .4531981-.36752.8204884-.8207181.8204884-.4534278 0-.8207181-.36752-.8207181-.8204884 0-.4534278.36752-.8207181.8207181-.8207181s.8207181.36752.8207181.8207181zm0-11.485c0 .4531981-.36752.8207181-.8207181.8207181-.4534278 0-.8207181-.36752-.8207181-.8207181 0-.4534278.36752-.8207181.8207181-.8207181s.8207181.36752.8207181.8207181z"/><path fill="url(#u)" d="M9.9950109 29.952326c0 .453204-.3675248.820499-.8207288.820499-.4534338 0-.8207289-.367524-.8207289-.820499 0-.453434.3675248-.820729.8207289-.820729.453204 0 .8207288.367525.8207288.820729z"/><path fill="url(#v)" d="M9.9950109 18.467176c0 .453204-.3675248.820729-.8207288.820729-.4534338 0-.8207289-.367525-.8207289-.820729 0-.453434.3675248-.820729.8207289-.820729.453204 0 .8207288.367525.8207288.820729z"/></g><path fill="none" stroke="#fff" stroke-opacity=".2" d="M12.5 5.0205154V43.038228"/><g fill="#9b9b9b" fill-opacity=".54970757" transform="matrix(.9091 0 0 1 2.363628 0)"><rect width="22.000004" height="1" x="15.000002" y="9" rx=".15156493" ry=".06539088"/><rect width="22.000004" height="1" x="15.000002" y="11" rx=".15156493" ry=".06539088"/><rect width="22.000004" height="1" x="15.000002" y="13" rx=".15156493" ry=".06539088"/><rect width="22.000004" height="1" x="15.000002" y="15" rx=".15156493" ry=".06539088"/><rect width="22.000004" height="1" x="15.000002" y="17" rx=".15156493" ry=".06539088"/><rect width="22.000004" height="1" x="15.000002" y="19" rx=".15156493" ry=".06539088"/><rect width="22.000004" height="1" x="15.000002" y="21" rx=".15156493" ry=".06539088"/><rect width="22.000004" height="1" x="15.000002" y="23" rx=".15156493" ry=".06539088"/><rect width="9.9000053" height="1" x="14.999992" y="25" rx=".06820424" ry=".06539088"/><rect width="22.000004" height="1" x="14.999992" y="29" rx=".15156493" ry=".06539088"/><rect width="22.000004" height="1" x="14.999992" y="31" rx=".15156493" ry=".06539088"/><rect width="22.000004" height="1" x="14.999992" y="33" rx=".15156493" ry=".06539088"/><rect width="22.000004" height="1" x="14.999992" y="35" rx=".15156493" ry=".06539088"/><rect width="15.400014" height="1" x="14.999992" y="37" rx=".10609552" ry=".06539088"/></g><path fill="url(#w)" d="M43.125 40.4375a19.5625 6.8125 0 1 1-39.125 0 19.5625 6.8125 0 1 1 39.125 0z" opacity=".2" transform="matrix(.75668 0 0 .29358 12.177896 29.12848)"/><g transform="matrix(1.0337 -.27698 .27698 1.0337 16.06828 -14.54823)"><path fill="#cb9022" fill-rule="evenodd" stroke="#5c410c" d="m17.34116 32.5 5.625-5.625 20.093749-9.75c3.25-1.25 5.1875 3.375 2.3125 5L25.34116 31.5l-8 1z" overflow="visible" style="marker:none" transform="translate(-29.75546 19)"/><path fill="url(#x)" d="M38.330708 20s1.4375.09375 2 1.34375c.579493 1.287761 0 2.65625 0 2.65625l5.03125-2.46875s1.452032-.881367.65625-2.84375c-.784912-1.935577-2.6875-1.15625-2.6875-1.15625l-5 2.46875z" transform="translate(-29.75546 19)"/><path fill="url(#y)" d="M38.330708 20s1.4375.09375 2 1.34375c.579493 1.287761 0 2.65625 0 2.65625l2-1s.827032-1.318867.21875-2.6875c-.625-1.40625-2.21875-1.3125-2.21875-1.3125l-2 1z" transform="translate(-29.75546 19)"/><path fill="url(#z)" d="m18.768208 31.78125 4.5-4.5c1.5.8125 2.28125 2.15625 1.875 3.71875l-6.375.78125z" transform="translate(-29.75546 19)"/><path fill="url(#A)" d="m20.111958 30.375-1.625 1.59375 2.34375-.3125c.21875-.71875-.1875-1.0625-.71875-1.28125z" transform="translate(-29.75546 19)"/><path fill="#fff" fill-opacity=".36363639" d="m-6.487252 46.25 1.5625 1.25 15.38734-7.31867c-.444432-.856044-1.241767-1.084597-1.903379-1.162262L-6.487252 46.25z"/><path fill-opacity=".36363639" d="m-4.612252 50.0625.1875-.75 15.23109-7.1296s-.11016.613627-.215879.74935L-4.612252 50.0625z"/></g><g transform="translate(-35.445472 -9.135454) scale(.8519)"><path fill="url(#B)" fill-rule="evenodd" d="M35.25 31a11.5 11.5 0 1 1-23 0 11.5 11.5 0 1 1 23 0z" color="#000" overflow="visible" style="marker:none" transform="translate(31.226417 -8.3044949) scale(1.21739)"/><path fill="url(#C)" fill-rule="evenodd" d="m57.183614 14.005474-8.778956 10.204598.769469.75997 8.009487-10.964568z" color="#000" overflow="visible" style="marker:none"/><path fill="#fefefe" fill-rule="evenodd" d="m57.110002 13.950502-7.828835 10.856179 1.118412.987454 6.710423-11.843633z"/><path fill="#a40000" fill-rule="evenodd" stroke="#a40000" stroke-linecap="round" stroke-linejoin="round" stroke-width="1.17384915" d="M73.88876945 27.15763605a13.4993164 13.4993164 0 1 1-26.99863281 0 13.4993164 13.4993164 0 1 1 26.9986328 0z"/><path fill="url(#D)" fill-rule="evenodd" stroke="url(#E)" stroke-linecap="round" stroke-linejoin="round" stroke-width="1.50005019" d="M31.160714 16.910715a14.910714 14.910714 0 1 1-29.8214281 0 14.910714 14.910714 0 1 1 29.8214281 0z" transform="translate(49.86098 16.201082) scale(.6479)"/><g stroke="#000" stroke-linecap="round" transform="matrix(-.18434 -1.18314 1.18314 -.18434 36.671686 62.080112)"><path fill="#f3f3f3" fill-rule="evenodd" stroke-linejoin="round" stroke-width=".81166249" d="M27.18792328 24.11790866c0 .62326426-.50525558 1.12851984-1.12851984 1.12851984-.62326427 0-1.12851985-.50525558-1.12851985-1.12851984 0-.62326427.50525558-1.12851985 1.12851985-1.12851985.62326426 0 1.12851984.50525558 1.12851984 1.12851985z"/><path fill="none" stroke-width=".8116582" d="m25.559726 22.971323-2.148396-4.803117"/><path fill="none" stroke-width="1.21748698" d="m23.258264 28.150282 1.993084-2.875229"/></g><path fill="url(#F)" fill-rule="evenodd" d="M17.324117 7.6932044a.61871845.61871845 0 1 1-1.237437 0 .61871845.61871845 0 1 1 1.237437 0z" transform="translate(35.649985 8.4184797) scale(1.47703)"/><path fill="url(#G)" fill-rule="evenodd" d="M17.324117 7.6932044a.61871845.61871845 0 1 1-1.237437 0 .61871845.61871845 0 1 1 1.237437 0z" transform="translate(35.649985 23.040322) scale(1.47703)"/><path fill="url(#H)" fill-rule="evenodd" d="M17.324117 7.6932044a.61871845.61871845 0 1 1-1.237437 0 .61871845.61871845 0 1 1 1.237437 0z" transform="translate(28.339062 15.729392) scale(1.47703)"/><path fill="url(#I)" fill-rule="evenodd" d="M17.324117 7.6932044a.61871845.61871845 0 1 1-1.237437 0 .61871845.61871845 0 1 1 1.237437 0z" transform="translate(42.960895 15.729392) scale(1.47703)"/><path fill="none" stroke="#ef2929" stroke-linecap="round" stroke-linejoin="round" stroke-width="1.17385742" d="M72.71491535 27.15763638a12.32546284 12.32546284 0 1 1-24.65092568 0 12.32546284 12.32546284 0 1 1 24.65092568 0z"/></g></svg>