<?xml version="1.0" encoding="UTF-8" standalone="no"?>
<svg xmlns="http://www.w3.org/2000/svg"
   xmlns:dc="http://purl.org/dc/elements/1.1/"
   xmlns:cc="http://creativecommons.org/ns#"
   xmlns:rdf="http://www.w3.org/1999/02/22-rdf-syntax-ns#"
   xmlns:xlink="http://www.w3.org/1999/xlink"
   xmlns:inkscape="http://www.inkscape.org/namespaces/inkscape"
   width="48px" height="48px" viewBox="0 0 48 48">
  <defs>
    <linearGradient
       inkscape:collect="always"
       id="linearGradient4126-0-3">
      <stop
         style="stop-color:#000000;stop-opacity:1;"
         offset="0"
         id="stop4128-2-5" />
      <stop
         style="stop-color:#000000;stop-opacity:0;"
         offset="1"
         id="stop4130-5-9" />
    </linearGradient>
    <radialGradient
       r="17.142857"
       fy="40"
       fx="23.857143"
       cy="40"
       cx="23.857143"
       gradientTransform="matrix(1,0,0,0.5,0,20)"
       gradientUnits="userSpaceOnUse"
       id="radialGradient4849"
       xlink:href="#linearGradient4126-0-3"
       inkscape:collect="always" />
  </defs>
  <metadata>
    <rdf:RDF>
      <cc:Work rdf:about="">
        <dc:format>image/svg+xml</dc:format>
        <dc:type rdf:resource="http://purl.org/dc/dcmitype/StillImage"/>
        <dc:title>Emblem-hacker</dc:title>
        <dc:date>2006-01-04</dc:date>
        <dc:creator>
          <cc:Agent>
            <dc:title>Andreas Nilsson</dc:title>
          </cc:Agent>
        </dc:creator>
        <dc:source>http://tango-project.org</dc:source>
        <dc:subject>
          <rdf:Bag>
            <rdf:li>hacker</rdf:li>
            <rdf:li>emblem</rdf:li>
          </rdf:Bag>
        </dc:subject>
        <cc:license rdf:resource="http://creativecommons.org/licenses/by-sa/2.0/"/>
      </cc:Work>
      <cc:License rdf:about="http://creativecommons.org/licenses/by-sa/2.0/">
        <cc:permits rdf:resource="http://web.resource.org/cc/Reproduction"/>
        <cc:permits rdf:resource="http://web.resource.org/cc/Distribution"/>
        <cc:requires rdf:resource="http://web.resource.org/cc/Notice"/>
        <cc:requires rdf:resource="http://web.resource.org/cc/Attribution"/>
        <cc:permits rdf:resource="http://web.resource.org/cc/DerivativeWorks"/>
        <cc:requires rdf:resource="http://web.resource.org/cc/ShareAlike"/>
      </cc:License>
    </rdf:RDF>
  </metadata>
  <g transform="translate(-2.9,-2.2)scale(1.1)">
    <rect width="31" height="31" x="9" y="8"
       style="fill:#d3d7cf;fill-opacity:1;stroke:none;stroke-width:1;stroke-linecap:round;stroke-linejoin:miter;stroke-miterlimit:4;stroke-opacity:1;stroke-dasharray:none;stroke-dashoffset:0"/>
    <path
       style="opacity:0.7;fill:#eeeeec;fill-opacity:1;stroke:none"
       d="m 9,8 0,13.96875 c 7.994343,0.527239 21.642712,3.453651 31,0.8125 L 40,8 z"/>
    <ellipse
       style="opacity:0.6;color:#000000;fill:url(#radialGradient4849);fill-opacity:1;fill-rule:nonzero;stroke:none;stroke-width:1;marker:none;visibility:visible;display:block;overflow:visible"
       cx="23.857143"
       cy="40"
       rx="17.142857"
       ry="8.5714283"
       transform="matrix(1.070555,0,0,0.525,-1.0403842,19)"/>
    <g id="CircX" transform="translate(10.5,20)">
      <circle transform="translate(0,0.5)" r="4" cy="13" cx="24"
         style="fill:#6c9ad1;fill-opacity:1;stroke:#3465a4;stroke-opacity:1"/>
      <circle transform="matrix(0.75,0,0,0.75,6,3.75)" cx="24" cy="13" r="4"
         style="fill:none;stroke:#adc7e3;stroke-width:1.33333337;stroke-opacity:1"/>
      <path
         d="m 24,10 c -1.927074,0 -3.5,1.572926 -3.5,3.5 0,0.07343 0.02677,0.146438 0.03125,0.21875 2.258588,0.287612 5.326008,-0.407625 6.9375,-0.46875 C 27.34083,11.438912 25.843347,10 24,10 z"
         style="opacity:0.31;fill:#eeeeec;fill-opacity:1;stroke:none;stroke-width:1.33333337;marker:none;visibility:visible;display:inline;overflow:visible;enable-background:accumulate"/>
    </g>
    <use x="-10" xlink:href="#CircX"/>
    <use x="-20" xlink:href="#CircX"/>
    <use y="-10" xlink:href="#CircX"/>
    <use x="-10" y="-20" xlink:href="#CircX"/>
    <g style="fill:#a82923;fill-opacity:1;stroke:#cc0000;stroke-width:1">
      <path d="m 19.5,38.5 0,-30"/>
      <path d="m 29.5,38.5 0,-30"/>
      <path d="M 39.5,18.5 9.5,18.5"/>
      <path d="m 39.5,28.5 -30,0"/>
    </g>
    <path
       style="fill:#ef2929;stroke:#cc0000;stroke-width:1;stroke-linecap:round;stroke-linejoin:miter;stroke-miterlimit:4;stroke-opacity:1;stroke-dasharray:none;stroke-dashoffset:0"
       d="m 7.5,6.5 0,34 34,0 0,-34 -34,0 z m 2,2 30,0 0,30 -30,0 0,-30 z"/>
  </g>
</svg>